<?xml version="1.0" encoding="utf-8"?>
<!-- Generator: Adobe Illustrator 15.0.2, SVG Export Plug-In . SVG Version: 6.00 Build 0)  -->
<!DOCTYPE svg PUBLIC "-//W3C//DTD SVG 1.1//EN" "http://www.w3.org/Graphics/SVG/1.1/DTD/svg11.dtd">
<svg version="1.1" id="Layer_1" xmlns="http://www.w3.org/2000/svg" xmlns:xlink="http://www.w3.org/1999/xlink" x="0px" y="0px"
	 width="300px" height="300px" viewBox="0 0 300 300" enable-background="new 0 0 300 300" xml:space="preserve">
<g>
	<g>
		<circle fill="#2F2356" cx="150" cy="150" r="150"/>
		<circle fill="#FFFFFF" cx="150" cy="150" r="100"/>
		<path fill="#CC1617" d="M101.751,222.877c0.643-1.043,1.538-2.323,1.991-2.845c4.294-4.948,5.604-5.929,12.902-9.651
			c12.562-6.407,14.929-8.242,17.646-13.672c1.803-3.604,4.467-20.049,4.481-27.666c0.004-2.186-0.377-2.987-2.314-4.869
			c-2.31-2.244-2.345-2.254-7.904-2.227c-5.491,0.025-5.585,0.052-5.585,1.568c0,0.849,0.404,2.51,0.897,3.691
			c0.494,1.181,1.099,3.752,1.344,5.715c0.299,2.398,0.956,4.175,2.004,5.42c1.997,2.373,3.976,2.482,3.976,0.219
			c0-2.308,1.532-1.6,1.773,0.818c0.147,1.48-0.207,2.248-1.508,3.271c-3.44,2.706-5.592,1.43-11.215-6.65
			c-3.932-5.652-6.344-7.268-12.116-8.112c-4.347-0.636-6.756-1.999-14.584-8.25c-3.729-2.978-7.38-5.734-8.114-6.128
			c-0.793-0.424-5.555-0.783-11.74-0.886c-10.04-0.166-10.445-0.224-11.513-1.636c-0.608-0.804-1.239-1.972-1.403-2.594
			c-0.358-1.363,1.618-3.347,3.906-3.921c2.764-0.694,7.047-2.827,12.353-6.152c2.774-1.738,5.842-3.439,6.818-3.779
			c0.976-0.34,2.992-1.761,4.481-3.158c2.482-2.328,8.14-5.463,11.781-6.527c1.329-0.389,1.438-0.278,1.043,1.051
			c-0.986,3.313-3.637,6.173-7.645,8.245c-2.227,1.151-4.05,2.303-4.051,2.56c-0.004,0.775,7.766,6.176,8.819,6.13
			c0.539-0.023,3.504-0.811,6.588-1.75l5.608-1.707l3.245-5.93c4.478-8.185,9.743-13.496,17.091-17.239
			c6.552-3.338,10.822-4.401,17.771-4.421c9.154-0.027,13.265,1.609,23.043,9.171c4.087,3.161,11.436,9.227,12.052,9.949
			c1.019,1.192,16.841,13.406,20.552,15.864c14.378,9.524,24.786,11.244,31.785,5.254c2.556-2.188,4.574-6.816,4.574-10.486
			c0-1.003,0.254-1.825,0.564-1.825c1.785,0,1.372,8.8-0.594,12.647c-1.461,2.86-5.918,7.11-9.146,8.723
			c-9.589,4.789-27.704,0.4-45.672-11.064c-5.683-3.626-7.252-3.491-12.813,1.102c-5.353,4.42-11.065,8.199-16.124,10.664
			c-5.062,2.467-7.052,4.092-8.54,6.971c-2.13,4.119-3.893,17.853-3.386,26.379c0.247,4.143,0.106,5.199-0.845,6.357
			c-0.628,0.764-5.694,3.905-11.259,6.982c-10.523,5.818-15.398,8.977-19.481,12.622c-1.711,1.528-2.771,2.034-3.666,1.75
			c-0.692-0.22-1.677-0.052-2.188,0.372c-0.747,0.62-1.179,0.547-2.189-0.367c-1.22-1.104-1.314-1.092-2.96,0.387l-1.7,1.527
			L101.751,222.877z"/>
	</g>
</g>
<rect fill="none" width="300" height="300"/>
</svg>
