<?xml version="1.0" encoding="utf-8"?>
<!-- Generator: Adobe Illustrator 15.0.2, SVG Export Plug-In . SVG Version: 6.00 Build 0)  -->
<!DOCTYPE svg PUBLIC "-//W3C//DTD SVG 1.1//EN" "http://www.w3.org/Graphics/SVG/1.1/DTD/svg11.dtd">
<svg version="1.1" id="Layer_1" xmlns="http://www.w3.org/2000/svg" xmlns:xlink="http://www.w3.org/1999/xlink" x="0px" y="0px"
	 width="300px" height="300px" viewBox="0 0 300 300" enable-background="new 0 0 300 300" xml:space="preserve">
<g>
	<g>
		<circle fill="#2F2356" cx="150" cy="150" r="150"/>
		<circle fill="#FFFFFF" cx="150" cy="150" r="100"/>
		<path fill="#CC1617" d="M149.996,63.336L136.023,89.47c-1.585,2.841-4.426,2.577-7.267,0.991l-10.116-5.253l7.54,40.143
			c1.585,7.334-3.502,7.334-6.013,4.163l-17.653-19.82l-2.866,10.065c-0.331,1.322-1.784,2.709-3.964,2.379l-22.324-4.707
			l5.863,21.377c1.256,4.758,2.234,6.726-1.267,7.982L70,150.541l38.429,31.305c1.521,1.183,2.29,3.312,1.748,5.241l-3.363,11.069
			c13.231-1.529,25.095-2.898,38.326-4.426c1.176-0.016,1.944,0.639,1.937,1.996l-2.361,40.901L150,236.66L149.996,63.336
			L149.996,63.336z M150.003,63.336l13.973,26.134c1.585,2.841,4.426,2.577,7.267,0.991l10.116-5.253l-7.54,40.143
			c-1.585,7.335,3.502,7.335,6.013,4.163l17.654-19.82l2.865,10.065c0.331,1.322,1.784,2.709,3.964,2.379l22.324-4.707
			l-5.863,21.377c-1.255,4.758-2.234,6.727,1.268,7.982l7.956,3.75l-38.429,31.304c-1.521,1.184-2.289,3.313-1.748,5.241
			l3.363,11.07c-13.231-1.529-25.095-2.898-38.326-4.426c-1.176-0.016-1.944,0.639-1.937,1.996l2.361,40.901L150,236.66
			L150.003,63.336L150.003,63.336z"/>
	</g>
</g>
<rect fill="none" width="300" height="300"/>
</svg>
