<?xml version="1.0" encoding="utf-8"?>
<!-- Generator: Adobe Illustrator 15.0.2, SVG Export Plug-In . SVG Version: 6.00 Build 0)  -->
<!DOCTYPE svg PUBLIC "-//W3C//DTD SVG 1.1//EN" "http://www.w3.org/Graphics/SVG/1.1/DTD/svg11.dtd">
<svg version="1.1" id="Layer_1" xmlns="http://www.w3.org/2000/svg" xmlns:xlink="http://www.w3.org/1999/xlink" x="0px" y="0px"
	 width="767px" height="767px" viewBox="0 0 767 767" enable-background="new 0 0 767 767" xml:space="preserve">
<circle fill="#C63B1A" cx="383.5" cy="383.5" r="383.5"/>
<g>
	<text transform="matrix(1 0 0 1 279.8989 203.0215)" font-family="'Myriad-Roman'" font-size="12">Sch</text>
	<text transform="matrix(1 0 0 1 297.8506 203.0215)" font-family="'Myriad-Roman'" font-size="12">w</text>
	<text transform="matrix(1 0 0 1 306.6357 203.0215)" font-family="'Myriad-Roman'" font-size="12">a</text>
	<text transform="matrix(1 0 0 1 312.4199 203.0215)" font-family="'Myriad-Roman'" font-size="12">r</text>
	<text transform="matrix(1 0 0 1 316.4492 203.0215)" font-family="'Myriad-Roman'" font-size="12">z</text>
	<text transform="matrix(1 0 0 1 321.5029 203.0215)" font-family="'Myriad-Roman'" font-size="12">es </text>
	<text transform="matrix(1 0 0 1 334.811 203.0215)" font-family="'Myriad-Roman'" font-size="12">K</text>
	<text transform="matrix(1 0 0 1 341.4321 203.0215)" font-family="'Myriad-Roman'" font-size="12">r</text>
	<text transform="matrix(1 0 0 1 345.2856 203.0215)" font-family="'Myriad-Roman'" font-size="12">euz ers</text>
	<text transform="matrix(1 0 0 1 380.2769 203.0215)" font-family="'Myriad-Roman'" font-size="12">t</text>
	<text transform="matrix(1 0 0 1 384.1787 203.0215)" font-family="'Myriad-Roman'" font-size="12">ellt </text>
	<text transform="matrix(1 0 0 1 402.3223 203.0215)" font-family="'Myriad-Roman'" font-size="12">v</text>
	<text transform="matrix(1 0 0 1 407.9629 203.0215)" font-family="'Myriad-Roman'" font-size="12">on </text>
	<text transform="matrix(1 0 0 1 423.7539 203.0215)" font-family="'Myriad-Roman'" font-size="12">D</text>
	<text transform="matrix(1 0 0 1 431.7227 203.0215)" font-family="'Myriad-Roman'" font-size="12">a</text>
	<text transform="matrix(1 0 0 1 437.3516 203.0215)" font-family="'Myriad-Roman'" font-size="12">vid Liuz</text>
	<text transform="matrix(1 0 0 1 475.4629 203.0215)" font-family="'Myriad-Roman'" font-size="12">z</text>
	<text transform="matrix(1 0 0 1 480.5156 203.0215)" font-family="'Myriad-Roman'" font-size="12">o</text>
</g>
<polygon points="683.5,239.5 523.5,239.5 523.5,79.5 243.5,79.5 243.5,239.5 83.5,239.5 83.5,519.5 243.5,519.5 243.5,679.5 
	523.5,679.5 523.5,519.5 683.5,519.5 "/>
<polygon fill="#FFFFFF" points="513.5,249.5 513.5,79.5 468.5,79.5 468.5,294.5 683.5,294.5 683.5,249.5 "/>
<polygon fill="#FFFFFF" points="468.5,679.5 513.5,679.5 513.5,509.5 683.5,509.5 683.5,464.5 468.5,464.5 "/>
<polygon fill="#FFFFFF" points="298.5,79.5 253.5,79.5 253.5,249.5 83.5,249.5 83.5,294.5 298.5,294.5 "/>
<polygon fill="#FFFFFF" points="83.5,464.5 83.5,509.5 253.5,509.5 253.5,679.5 298.5,679.5 298.5,464.5 "/>
<rect x="83.5" y="79.5" fill="none" width="600" height="600"/>
</svg>
