<?xml version="1.0" encoding="utf-8"?>
<!-- Generator: Adobe Illustrator 15.0.2, SVG Export Plug-In . SVG Version: 6.00 Build 0)  -->
<!DOCTYPE svg PUBLIC "-//W3C//DTD SVG 1.1//EN" "http://www.w3.org/Graphics/SVG/1.1/DTD/svg11.dtd">
<svg version="1.1" id="Layer_1" xmlns="http://www.w3.org/2000/svg" xmlns:xlink="http://www.w3.org/1999/xlink" x="0px" y="0px"
	 width="600px" height="600px" viewBox="0 0 600 600" enable-background="new 0 0 600 600" xml:space="preserve">
<circle fill="#2F2356" cx="300" cy="300" r="300"/>
<circle fill="#FFFFFF" cx="300" cy="300" r="200"/>
<g>
	<path fill="#CC1617" d="M269.021,434.592c-7.01-7.679-15.285-11.438-23.068-10.476c-9.092,1.123-16.556-0.703-17.846-4.366
		c-0.412-1.173-0.485-4.829-0.279-14.116c0.233-10.52,0.154-13.303-0.495-17.318c-1.684-10.43-3.094-14.966-7.918-25.463
		c-4.329-9.423-7.941-14.784-13.279-19.708c-7.373-6.802-13.06-12.812-16.555-17.499c-13.64-18.287-19.605-40.648-16.818-63.039
		c2.243-18.018,9.358-33.917,21.19-47.351c12.345-14.015,27.44-23.094,45.583-27.415c8.503-2.025,12.906-2.446,23.516-2.248
		c10.358,0.194,13.244,0.622,22.44,3.332c1.26,0.371,3.682,1.078,5.381,1.57c9.575,2.773,24.274,10.158,39.39,19.788
		c11.505,7.33,19.003,11.409,22.016,11.978c0.823,0.155,1.827,0.449,2.23,0.653c1.454,0.735,14.336,3.226,22.181,4.287
		c7.507,1.017,13.835,2.648,19.001,4.9c10.249,4.469,13.657,8.307,19.458,21.914c3.367,7.899,4.89,13.701,5.521,21.04
		c0.726,8.442,1.381,12.174,3.014,17.162c1.952,5.962,5.97,14.571,8.294,17.772c6.039,8.314,13.438,19.506,15.174,22.948
		c4.144,8.223,6.611,18.9,3.027,13.104c-1.88-3.041-6.446-8.92-9.467-12.189c-1.62-1.753-4.342-5.035-6.05-7.292
		c-1.707-2.258-3.567-4.515-4.132-5.017c-0.565-0.501-2.746-2.984-4.847-5.518c-4.335-5.23-8.482-9.207-11.314-10.851
		c-2.1-1.218-7.9-2.952-11.557-3.454c-8.249-1.133-14.276-3.091-23.602-7.668c-6.98-3.427-7.163-3.486-10.541-3.464
		c-4.315,0.029-7.146,1.279-11.686,5.16c-7.366,6.298-15.482,11.485-26.58,16.993c-7.19,3.566-7.706,3.801-11.319,5.135
		c-5.269,1.946-8.004,2.773-15.72,4.752c-1.008,0.258-4.514,0.988-7.79,1.623c-3.277,0.635-6.783,1.35-7.791,1.588
		c-8.986,2.129-11.992,2.97-16.075,4.496c-5.822,2.178-12.744,7.193-19.716,14.289c-6.361,6.475-9.921,12.285-12.597,20.566
		c-3.086,9.549-3.382,17.161-1.058,27.225c1.692,7.325,6.168,14.446,10.79,17.166c5.267,3.101,12.136,3.581,22.656,1.585
		c4.688-0.89,5.439-0.918,9.687-0.373c2.688,0.345,5.107,0.919,5.816,1.382c1.247,0.812,1.224,1.661-0.047,1.661
		c-1.103,0-9.273,2.763-9.567,3.235c-0.143,0.229,0.115,0.547,0.572,0.706c5.812,2.018,17.624,9.909,17.054,11.394
		c-0.112,0.295-2.033-0.139-4.995-1.125c-4.51-1.502-5.259-1.614-11.915-1.784c-8.926-0.228-9.41-0.021-7.811,3.351
		c2.206,4.648,3.327,8.835,2.367,8.835C272.725,438.45,270.959,436.714,269.021,434.592z M306.679,406.891
		c-6.109-7.554-12.589-12.865-17.32-14.196c-1.623-0.457-4.291-1.209-5.929-1.673c-2.327-0.657-3.411-1.28-4.951-2.843
		c-1.688-1.712-2.029-2.387-2.37-4.691c-0.479-3.24-1.641-8.234-2.64-11.353c-1.302-4.058-5.336-11.308-8.264-14.847
		c-1.571-1.899-2.856-3.773-2.856-4.163c0-1.054,3.343-3.863,5.034-4.233c1.259-0.274,1.688-0.112,2.968,1.121
		c2.921,2.816,8.339,11.471,11.45,18.293c3.704,8.121,3.928,8.516,5.751,10.154c1.927,1.73,3.113,2.131,9.397,3.166
		c3.329,0.549,4.786,0.581,7.561,0.164c4.657-0.698,13.357-0.652,16.77,0.088c2.987,0.648,7.108,2.646,7.414,3.596
		c0.145,0.446-1.021,0.559-5.141,0.495c-3.081-0.048-5.522,0.112-5.789,0.378c-0.31,0.307,0.236,1.632,1.66,4.027
		c1.166,1.962,2.155,4.097,2.196,4.742l0.075,1.175l-5.061-0.16c-6.218-0.196-6.323-0.118-5.441,4.034
		c0.958,4.508,0.654,10.406-0.557,10.807C310.352,411.066,308.57,409.23,306.679,406.891z"/>
</g>
<rect fill="none" width="600" height="600"/>
</svg>
