<?xml version="1.0" encoding="utf-8"?>
<!-- Generator: Adobe Illustrator 15.0.2, SVG Export Plug-In . SVG Version: 6.00 Build 0)  -->
<!DOCTYPE svg PUBLIC "-//W3C//DTD SVG 1.1//EN" "http://www.w3.org/Graphics/SVG/1.1/DTD/svg11.dtd">
<svg version="1.1" xmlns="http://www.w3.org/2000/svg" xmlns:xlink="http://www.w3.org/1999/xlink" x="0px" y="0px"
	 width="599.998px" height="600.17px" viewBox="0 0 599.998 600.17" enable-background="new 0 0 599.998 600.17"
	 xml:space="preserve">
<g id="Layer_3">
	<circle fill="#DC143C" cx="299.999" cy="297.165" r="299.999"/>
</g>
<g id="Layer_4">
	<g id="g17183" transform="matrix(8.8811211e-2,0,0,8.8811211e-2,498.77553,34.310596)">
		<path id="path81137" fill="#FFFFFF" d="M-1888.6,740.091c-54.804,94.208-78.291,100.75-318.52,63.799
			c-190.214-18.968-361.47-72.672-369.343,99.629c62.897,7.466,155.054,14.3,194.903,148.698l-117.046,99.277
			c-82.179,12.925-211.793,122.891-297.414,20.65c-23.498,96.132,64.766,123.199,156.863,119.339
			c64.541-6.62,85.125-23.96,205.597-47.766l31.927,34.329c182.055,15.076,276.279,275.3-18.902,427.979
			c-11.441,35.347,7.428,77.73,35.457,82.755c-85.785,121.346-226.561,272.744-277.082,172.857
			c-11.754,11.051-44.902,93.614,19.353,139.252c-48.822,60.077-67.664,131.193-65.047,213.322
			c-194.524-30.398-322.627-63.359-279.022-245.259c206.949,9.561,263.018-240.372,232.619-367.062
			c-120.268-506.028-773.071-911.895-1248.212-925.128c26.434,137.675,111.395,237.029,208.121,328.664
			c-125.997-61.335-272.232-120.818-425.363-89.617c17.693,108.772,76.664,234.913,324.832,440.713
			c-178.871-106.188-343.86-209.908-401.952-294.368c-25.812,34.841-40.377,176.683,112.329,280.21
			c-48.497-19.336-288.171-17.604-360.623,35.489c43.77,99.624,243.786,273.755,407.917,327.454
			c-155.637-22.646-301.504-85.356-435.094-198.614c-19.721,17.72,0.753,202.067,166.683,275.46
			c-53.743,3.59-237.057,55.018-284.4,114.066c95.643,127.685,340.199,240.152,461.72,240.603
			c-165.753,21.624-346.796-11.705-422.063-35.423c1.672,42.373-33.978,212.535,419.738,184.457
			c-161.888,76.466-406.186,235.688-445.183,376.04c157.248,69.61,439.256,12.238,585.09-33.505
			c-431.256,262.837-498.573,289.837-578.569,272.189c104.434,220.766,356.055,71.617,573.456-52.033
			c-267.284,357.622-310.724,539.935-305.028,793.315c215.235-25.917,526.789-334.222,692.823-597.07
			c-192.391,395.734-306.919,713.902-516.689,807.51c239.008,94.686,443.995-205.24,588.009-523.386
			c-55.156,201.402-77.972,628.254-7.516,732.661c216.071-146.422,379.768-471.463,489.469-844.149
			c-37.419,183.666-65.107,367.276-132.397,550.92c138.906,26.412,209.907-222.822,256.75-368.827
			c4.316,7.642,9.495,14.075,22.888,26.533c175.495-127.311,231.322-422.817,243.637-538.522
			c159.991,45.463,230.41-12.557,271.38-42.307c35.055,48.498,37.276,124.199,47.145,134.569
			c-174.039-141.342-360.673,0.319-368.31,235.742c-18.858,98.249-71.353,211.903-202.732,299.838
			c8.219,10.666,26.572,15.01,50.356,14.548c-22.866,39.377-43.637,73.409-82.437,109.102c10.023,5.828,22.558,6.609,34.428,8.72
			c-29.211,48.778-77.945,94.84-126.646,118.306c11.688,11.194,18.33,14.943,53.754,24.565
			c-32.449,43.104-85.417,81.986-135.371,102.966c95.313,56.64,168.134,63.887,227.221,58.488c0.115-0.022,0.231,0,0.319,0
			c-37.711,74.586-98.529,112.368-157.946,145.861c18.495,17.385,40.718,21.135,59.202,15.934
			c-53.704,55.826-110.449,99.788-161.668,115.645c9.324,6.971,15.873,16.604,48.849,14.107
			c-36.644,45.227-81.112,89.419-159.766,109.927c15.554,29.942,47.568,25.346,75.185,26.346
			c-21.497,46.26-88.787,61.787-156.901,76.114c51.323,14.526,86.241,42.092,55.684,34.912
			c-20.722,24.994-41.059,37.903-85.477,44.567c-45.644,6.85-209.039-52-274.894-29.305c-18.644-37.133-63.76-62.721-111.34-62.721
			c-60.797,0-120.543,38.761-123.364,92.916c-9.418-6.51-49.091-11.755-43.038,35.308c14.3,27.732,15.004,49.977,102.499,83.668
			c14.267,6.356,31.603,9.666,52.616,8.775c31.163-1.331,66.042-16.967,92.13-39.607l-0.539,0.945
			c43.583,8.038,91.547,15.361,118.042,26.435c-68.928,5.509-92.63,43.533-131.935,70.902c-16.549-0.825-30.228-4.915-45.193-7.323
			l0.478,0.517c-8.989-2.254-18.066-3.233-26.913-2.76c-49.218,2.661-98.821,58.114-104.137,120.966
			c-1.089,12.745,2.078,24.928,8.263,36.045l-0.742,10.71c-14.361,17.726-8.659,31.812,5.333,42.016
			c60.087,23.861,95.89,9.204,117.514,4.827c54.496-6.642,100.113-51.56,100.113-101.547c0-0.121,0-0.231,0-0.352l1.138,1.254
			c64.497-13.416,128.075-31.328,163.395-57.322c1.814,3.926,2.881,8.203,2.084,13.426c-22.437,13.294-59.34,34.406-78.847,99.48
			c-5.811-0.55-11.364-0.825-16.604-0.836c-73.761-0.121-91.965,50.834-90.656,92.432c1.276,40.575,16.016,66.69,37.045,82.437
			c-4.47,25.269-1.375,46.392,24.763,54.826c88.05,13.811,109.228-31.756,126.921-30.624c-0.984-11.557,1.369-19.792,4.64-27.105
			c27.017-12.535,45.325-22.816,47.865-73.519c2.315-31.503-3.051-50.812-13.387-63.117l2.353,0.671
			c0.017,0.088,0.055,0.176,0.055,0.275c0.094-0.088,0.187-0.165,0.259-0.231l0.737,0.231l-0.088-0.737
			c80.628-68.857,132.26-123.199,167.078-169.162c31.036,7.147,100.624,5.509,134.86-5.949l-1.364,12.349
			c-32.301,30.733-10.336,104.132,32.306,102.504c-1.842,6.895-1.512,13.118,0,20.023c27.666,17.077,78.792,5.08,117.811,13.8
			c20.018-2.364,29.524-15.791,24.449-43.236l-0.687-0.396c31.316-18.55,52.313-51.978,48.283-94.268
			c0-58.433-45.611-105.1-101.866-108.783l0.313-0.264c-60.236-6.499-118.014,36.935-105.407-56.86
			c164.863-195.189,389.889-490.101,451.39-525.937c-4.898-6.377-8.208-14.779-11.023-22.938
			c24.422,64.645,116.793,132.82,213.959,126.97c-17.489-33.285-36.902-62.875-43.83-151.832
			c14.521,20.98,39.305,30.821,69.588,37.045c-45.408-207.846,22.36-378.866,161.916-535.13
			c-11.068,201.094-36.463,403.464-158.557,608.484c62.814,19.672,144.921-44.357,156.225-82.404
			c13.355,181.104-158.248,414.185-292.448,302.411c-84.262,185.26,115.573,275.163,241.598,167.623
			c-21.299,112.07-108.882,177.958-204.349,203.667c-95.45,25.742-194.937-14.801-131.451-167.645
			c-13.464-7.961-204.97-12.821-210.364,195.981c5.718,120.648,87.176,166.039,94.538,168.128
			c-273.085,207.164,2.045,438.024,227.325,393.183c178.646-27.567,280.172-172.318,344.927-277.274
			c-19.6,75.521-100.388,317.981,105.572,580.598c203.777-318.52,117.657-533.117,112.731-567.183
			c160.178,247.112,318.256,264.937,411.7,258.79c159.705,2.573,385.804-248.398,98.315-408.962
			c147.126-70.044,156.824-361.008-50.417-375.93c42.697,115.293-47.393,184.963-146.774,175.979
			c-99.348-8.995-190.956-66.272-226.176-195.354c195.64,94.093,286.445-91.002,219.875-191.506
			c-166.996,138.055-245.914-83.426-268.291-215.224c42.587,32.471,79.479,43.753,151.228,33.131
			c-135.778-174.649-167.425-408.94-179.531-629.002c92.3,146.994,183.556,326.91,180.598,503.142
			c21.376-10.501,40.817-13.349,79.358-90.519c3.475,131.831-11.568,149.688-56.167,204.833
			c73.024,30.689,168.953-28.348,214.597-106.683c0.132-0.22,0.275-0.418,0.407-0.627
			c141.892,191.572,295.077,388.19,444.072,540.243c32.317,33.747,43.5,67.471-16.34,79.325
			c-191.505-70.682-211.595,129.555-132.16,156.648c-6.268,18.089-8.005,36.87-2.551,56.629
			c37.694,11.623,114.699-19.595,135.328-20.728c9.577-8.676,9.687-26.808,9.401-45.303c19.232-0.945,32.372-11.029,41.554-27.083
			c37.342,7.169,73.541,11.964,120.791-27.05l141.606,142.222c7.356,4.233-7.499,19.43,12.524,21.376
			c-15.724,94.444,20.189,105.188,51.01,129.005c-6.322,90.354,128.906,38.277,142.167,43.423
			c14.328-8.467,15.526-18.22,13.217-28.326c15.724-16.483,8.379-24.862,3.188-36.529c67.757-103.274-28.325-182.027-81.194-172.999
			c-56.245-61.709-96.753-87.638-142.156-124.617c92.905,35.077,236.248,74.717,277.428,105.077
			c15.681,105.407,108.09,61.841,176.188,65.47c21.156-29.733,9.787-38.947,0-49.107c89.617-115.623-99.469-210.496-179.96-142.178
			c-47.733-44.072-89.1-51.769-132.116-69.219c17.956-18.078,56.002-32.186,141.573-37.738
			c38.398,25.434,76.741,34.362,115.106,6.278c16.516,36.133,49.372,26.765,61.017,20.101
			c28.095-32.361,28.875-81.491,36.54-126.432c-7.653-16.296-19.859-26.896-40.905-26.435
			c-58.135-99.436-170.404-38.98-176.804,5.641c-96.754,7.928-182.83,20.254-285.038,61.083
			c-33.703,10.149-65.8-26.335-94.367-47.239c25.874-10.358,48.426-22.113,47.811-44.05c-41.389-4.058-81.81-1.176-129.621-50.307
			l12.602-33.978c-36.925-11.314-76.62-38.188-125.211-114.534c10.183-6.081,19.793-16.175,28.337-33.956
			c-55.244-12.755-100.448-41.994-137.208-84.944c13.151-6.444,25.653-17.681,37.122-35.869
			c-51.516-31.086-101.075-58.146-199.796-186.789c-0.363-0.627-0.748-1.308-1.089-1.88
			c103.945,17.352,212.508,7.115,276.757-39.607c-51.076-14.24-141.221-43.94-181.455-121.725c19.946-1.627,30.91-5.52,43.313-9.061
			c-77.95-51.461-98.612-79.27-118.394-120.989c16.406,1.649,39.86-5.828,47.689-17.253c-50.263-22.608-72.31-53.902-90.233-87.99
			c20.672,0.429,42.4,4.453,59.114-8.313c-198.609-89.573-170.976-553.911-384.144-555.307
			c-94.884,7.763-112.104,28.315-161.047,53.298c14.35-39.718,38.64-76.944,64.008-113.896
			c116.436,54.375,208.703,23.713,239.976-3.541c15.922,186.58,75.751,386.838,205.295,487.055
			c22.212-12.513,48.888-28.578,65.162-46.557c23.113,173.362,87.835,401.199,233.191,382.319
			c-66.988-166.93-65.91-334.662-73.299-501.449c60.939,489.474,211.145,774.952,335.322,860.555
			c57.212-75.564,99.854-432.878,72.123-647.431c122.088,220.986,257.591,425.643,371.169,424.532
			c51.461-0.517,108.618-42.631,143.112-53.297c-178.058-71.837-298.936-399.67-408.28-603.799
			c205.196,321.313,448.746,466.042,563.631,487.803c4.124-99.37,26.104-377.381-229.398-762.586
			c456.607,241.719,553.625,85.609,580.356,2.364c-206.053,71.787-483.932-193.023-670.05-277.203l-2.529-7.384
			c272.359,124.293,539.55,167.139,705.853,62.347c-142.145-219.347-279.814-299.272-429.447-355.62
			c295.659,32.812,392.589-67.746,398.681-177.865c-107.904,36.468-207.703,42.164-336.333,21.585
			c282.926-57.008,333.947-177.041,331.154-189.026c-72.485-56.316-209.319-119.729-332.936-131.363
			c341.15-122.583,232.708-238.145,220.041-274.421c-106.089,99.447-290.964,170.372-323.645,167.419
			c159.233-83.047,297.309-300.294,288.358-324.854c-79.534-40.921-244.308-38.926-310.515-18.902
			c66.262-72.688,153.24-197.103,73.002-300.591c-77.181,109.091-150.579,167.105-223.889,224.042
			c66.515-84.152,143.794-180.713,170.262-378.354c-99.624,13.058-189.922,3.293-319.235,88.677
			c74.19-92.696,119.856-183.907,128.906-294.362c-445.623,31.267-966.49,264.871-1217.858,847.327
			c-72.947,171.097-16.032,462.336,213.289,429.134c36.177,146.934-61.061,236.743-272.315,230.255
			c-4.475-49.179,10.93-146.659-49.646-197.971c51.318-3.332,61.379-29.733,72.122-52.137
			c-137.922-31.828-115.578-77.588-89.881-322.589c18.132,7.51,38.805,3.167,54.485-11.348
			c-56.992-52.544-38.145-149.705-9.401-455.876c5.773-133.442-21.706-200.248-50.977-223.273
			c17.637-8.951,29.216-23.454,20.101-56.733c63.788-11.216,36.781-89.034,10.501-114.281
			c-12.799,34.692-67.482,47.508-119.273,9.044C-1841.295,860.497-1840.745,789.436-1888.6,740.091z M-1630.843,4030.319
			c2.1,2.562,4.311,4.959,6.521,7.323c-2.21-2.232-4.431-4.509-6.63-6.895C-1630.92,4030.605-1630.898,4030.473-1630.843,4030.319z
			 M-2934.844,4039.798c-6.158,23.081,4.8,86.23,6.125,128.257c21.107,10.38,58.389-0.363,101.157-16.67
			c-2.32,1.022-4.602,1.979-6.9,2.98c-32.168,11.931-70.511,24.114-94.565,14.438l-7.549-94.005
			c-1.573-10.611-1.435-22.091,1.528-34.967C-2934.97,4039.809-2934.915,4039.809-2934.844,4039.798z M-2950.562,4044.174
			c-3.552,1.034-7.147,1.924-10.864,2.705C-2957.842,4046.033-2954.262,4045.175-2950.562,4044.174z M-1603.892,4055.676
			c47.129,34.428,105.253,35.385,126.707,30.239c1.221-2.683,2.287-5.388,3.244-8.093c-0.759,3.046-1.616,6.125-2.562,9.248
			C-1520.873,4093.832-1563.691,4086.531-1603.892,4055.676z M-3227.067,4841.591c0,0.055,0,0.077,0,0.121l-0.121-0.055
			C-3227.149,4841.656-3227.105,4841.624-3227.067,4841.591z M-2018.935,4893.898c44.248,46.491,215.048,172.867,413.151,111.774
			c16.472,111.983-78.666,154.141-153.757,138.835C-1832.949,5129.553-1943.371,5070.978-2018.935,4893.898z M-2412.552,4922.554
			c-64.277,122.297-170.844,225.747-265.701,250.653c-94.83,24.873-183.231-22.3-148.797-145.411
			C-2622.206,5096.345-2455.777,4975.06-2412.552,4922.554z"/>
		<path id="path2569" fill="#F6D155" d="M-2647.558,357.223c86.055,150.21,120.577,292.36,168.14,428.128
			c78.78-10.71,170.305,7.246,258.246,16.994c89.65,11.65,182.401,28.623,258.02,16.983
			c46.458-213.921,86.659-320.796,179.157-471.303c-41.026,27.913-128.378,39.327-162.608,90.035
			c-51.34-45.655-91.992-17.071-117.492,31.234c8.676-38.552-2.804-71.254-53.231-74.421c29.898-56.09-16.175-83.949-64.337-58.79
			c-1.331-48.872-40.388-49.279-43.192-75.328c-6.466,30.173-40.696,15.235-35.809,88.188
			c-39.052-31.316-77.153-10.913-62.55,44.116c-47.31-0.22-60.539,38.711-56.058,87.269
			c-32.433-75.267-93.394-52.291-114.836-25.719C-2532.155,379.649-2560.887,426.981-2647.558,357.223z"/>
		<path id="path80166" fill="#DFDDE2" d="M-3357.484,2655.659c-69.159-81.678-59.032-133.343-56.86-162.174
			c-76.301-57.602-56.25-80.347-69.39-103.659c26.478,46.645,52.951,77.555,79.424,81.931
			c50.449,46.216,100.888,61.748,151.315,91.954c-308.459-168.607-223.438-375.435-219.853-434.731
			c-48.201,1.616-83.613-8.296-109.52-26.753c8.885-83.591,52.77-151.546,146.285-197.29c-11.689,4.063-23.394,9.632-35.104,11.71
			c-10.963-2.292-37.59-71.199-4.178-116.211c19.199-12.156,71.111-16.439,123.732,4.195
			c31.113-62.639,71.408-118.388,155.489-141.298c20.771,21.458,55.854,85.406,30.937,196.47
			c34.494,12.772,68.224,28.87,96.138,70.215c-8.643,35.297-17.291,45.243-25.906,54.348c134.871,1.407,148-187.905-2.375-207.829
			c24.345-178.228-204.184-284.581-303.61-64.717c-182.989-49.07-232.092,93.487-163.021,204.827
			c-22.322,16.329-203.354,149.848-30.921,341.078c-0.352,94.191,23.586,185.711,151.304,265.849
			C-3406.906,2631.573-3383.66,2631.809-3357.484,2655.659z"/>
		<path id="path40357" fill="#DFDDE2" d="M-1089.567,1660.673l24.367-46.194c164.697-25.708,264.244,84.493,199.786,214.768
			c132.952,113.715,59.818,261.44-20.618,290.926c96.028-70.517,43.181-92.306,26.841-91.151
			c5.135-2.353,13.206-6.801,19.991-12.486c-5.3-62.138-29.733-120.972-125.508-191.67c47.338-52.39,42.577-102.164,36.232-137.351
			c-52.737-13.734-99.403-9.374-140.496,11.854L-1089.567,1660.673z"/>
		<path id="path39386" fill="#DFDDE2" d="M-1317.425,1980.969c7.587-25.719,14.592-67.042,61.182-106.149
			c-14.603,10.633-30.8,23.68-48.701,39.333c-59.917-24.285-98.315-79.138-107.397-112.384
			c36.627-47.332,123.825-40.471,136.119-37.458c-25.334-95.495,7.5-166.408,31.207-193.54
			c78.951,7.279,119.834,47.915,151.723,84.273l23.707-42.45c-21.552-67.004-87.66-117.454-165.423-101.477
			c-64.986,6.911-138.78,63.364-109.289,195.761C-1540.258,1785.856-1456.832,1973.755-1317.425,1980.969z"/>
		<path id="path38415" fill="#F1EEF0" d="M-1743.86,2316.214c-7.202,72.276-21.398,124.964-36.858,174.203
			c266.388-39.992,660.891-108.585,607.505-401.457c-48.492,35.297-96.984,41.752-145.465,42.472
			c-8.291-41.719-12.909-86.065,1.869-144.234c-44.017,59.598-95.951,82.123-149.842,95.527
			c241.053,107.59-101.988,297.803-245.364,233.488H-1743.86z"/>
		<path id="path34476" fill="#E8E6EB" d="M-2705.748,2425.992c7.653,82.899,33.367,183.787,58.735,277.23
			C-2663.903,2676.546-2715.149,2514.092-2705.748,2425.992z"/>
		<path id="path33505" fill="#C3BDC9" d="M-1913.352,2366.828c-64.403,255.123,219.523,230.371,20.299-31.344
			c193.661,118.564,66.701,295.846,56.959,335.514C-1866.487,2534.148-1986.332,2499.626-1913.352,2366.828z"/>
		<path id="path5999" fill="#FFFFFF" d="M-3196.278,1667.936l-96.209,282.597c-23.795-10.111-45.93-19.655-76.867-55.541
			C-3368.623,1797.089-3281.991,1675.05-3196.278,1667.936z"/>
		<path id="path6003" fill="#C3BDC9" d="M-3119.84,2218.531l-173.274-267.724c27.083-0.61,58.669,0.115,96.319-8.891
			C-3145.795,1989.716-3089.084,2113.938-3119.84,2218.531z"/>
		<path id="path6007" fill="#FFFFFF" d="M-3168.849,1861.954c52.192,14.531,88.413,48.465,94.406,69.643l-122.264,11.348
			C-3185.018,1917.66-3176.243,1889.636-3168.849,1861.954z"/>
		<path id="path6982" fill="#FFFFFF" d="M-3471.837,1915.526c-22.811-32.944-22.707-100.47,0.918-114.336l101.944,94.082
			C-3396.091,1901.556-3445.436,1904.388-3471.837,1915.526z"/>
		<path id="path6986" fill="#FFFFFF" d="M-3579.553,2099.467l285.631-147.401c5.993-3.684-40.592-47.86-75.955-56.689
			C-3446.134,1885.689-3573.049,1981.145-3579.553,2099.467z"/>
		
			<linearGradient id="path6988_1_" gradientUnits="userSpaceOnUse" x1="-29654.5859" y1="-17589.4922" x2="-29089.0996" y2="-18036.9355" gradientTransform="matrix(0.0888 0 0 -0.0888 -738.1616 590.8071)">
			<stop  offset="0" style="stop-color:#C3BDC9"/>
			<stop  offset="1" style="stop-color:#C3BDC9;stop-opacity:0"/>
		</linearGradient>
		<path id="path6988" fill="url(#path6988_1_)" d="M-3342.057,2099.808c-147.428,422.102,487.621,487.495,656.921,500.096
			l-20.414-105.798c-307.123-13.651-593.562-81.414-551.161-312.23C-3312.203,2147.167-3324.073,2131.515-3342.057,2099.808z"/>
		
			<linearGradient id="path8936_1_" gradientUnits="userSpaceOnUse" x1="-10555.7051" y1="-29028.7363" x2="-12268.1514" y2="-28142.6289" gradientTransform="matrix(0.0888 0 0 -0.0888 -738.1616 590.8071)">
			<stop  offset="0" style="stop-color:#C3BDC9"/>
			<stop  offset="1" style="stop-color:#C3BDC9;stop-opacity:0"/>
		</linearGradient>
		<path id="path8936" fill="url(#path8936_1_)" d="M-3341.699,2098.713c-33.967,16.698-82.673,24.131-129.857,31.366
			c-122.231,511.972,671.018,552.36,822.899,571.213c-23.861-47.272-29.865-72.31-36.699-103.164
			C-3087.902,2572.057-3460.176,2421.286-3341.699,2098.713z"/>
		<path id="path13795" fill="#C3BDC9" d="M-1243.599,1573.217c44.501,91.755,92.113,199.774,125.673,302.466
			c19.221-28.084,37.98-56.233,76.4-88.595C-1062.583,1690.708-1110.668,1588.737-1243.599,1573.217z"/>
		<path id="path14766" fill="#FFFFFF" d="M-1243.51,1572.557c44.831,94.038,96.324,206.631,125.948,302.834l-108.211-15.587
			C-1289.848,1790.123-1305.198,1651.348-1243.51,1572.557z"/>
		<path id="path15737" fill="#C3BDC9" d="M-1409.648,1801.372c28.062-32.119,87.847-42.279,136.064-33.988
			c10.93,26.66,28.535,64.365,48.217,93.229L-1409.648,1801.372z"/>
		<path id="path16708" fill="#C3BDC9" d="M-931.522,1689.922l-110.322,98.436l71.639,37.485
			C-912.477,1776.334-928.399,1689.218-931.522,1689.922z"/>
		<path id="path17679" fill="#C3BDC9" d="M-1041.778,1786.742c-17.704,3.656-79.281,88.633-75.278,87.88l275.503,140.5
			C-840.53,1967.427-884.36,1850.425-1041.778,1786.742z"/>
		<path id="path18650" fill="#C3BDC9" d="M-1117.98,1873.852l-198.543,256.415c127.014-5.498,177.98-61.957,222.437-132.117
			L-1117.98,1873.852z"/>
		<path id="path19621" fill="#FFFFFF" d="M-931.401,1689.922c-42.565-14.168-98.766-9.671-137.922,12.062
			c13.041,27.545,21.849,61.517,28.127,86.06L-931.401,1689.922z"/>
		<path id="path20592" fill="#FFFFFF" d="M-1118.036,1874.143l276.89,140.963c-50.647,41.746-210.705,2.787-253.644-15.961
			L-1118.036,1874.143z"/>
		<path id="path21563" fill="#FFFFFF" d="M-1117.618,1874.753l-108.442-15.438c-120.384,50.444-99.117,255.975-89.991,270.968
			L-1117.618,1874.753z"/>
		<path id="path22534" fill="#FFFFFF" d="M-1227.039,1859.947l-182.533-58.829c8.961,44.012,62.732,93.713,103.538,110.4
			C-1297.335,1903.618-1257.068,1866.715-1227.039,1859.947z"/>
		<path id="path23505" fill="#FFFFFF" d="M-1091.007,1998.865c-33.802,49.79-44.281,62.974-81.667,88.331
			c64.568,296.363-361.195,370.454-607.351,405.042c-2.386,40.801-15.329,75.234-27.171,106.567
			C-1762.817,2595.709-888.913,2578.946-1091.007,1998.865z"/>
		
			<linearGradient id="path24476_1_" gradientUnits="userSpaceOnUse" x1="-249.8271" y1="-15586.6934" x2="-1274.4589" y2="-16370.5" gradientTransform="matrix(0.0888 0 0 -0.0888 -738.1616 590.8071)">
			<stop  offset="0" style="stop-color:#C3BDC9"/>
			<stop  offset="1" style="stop-color:#C3BDC9;stop-opacity:0"/>
		</linearGradient>
		<path id="path24476" fill="url(#path24476_1_)" d="M-1086.158,2002.769c117.723,431.129-267.235,554.042-720.708,595.118
			c-11.029,26.83-21.618,55.926-32.658,85.862c615.499-42.978,937.582-241.95,853.594-656.75
			C-1025.428,2020.967-1056.546,2012.104-1086.158,2002.769z"/>
		<path id="path9207" fill="#F6D155" d="M-3959.293,5023.288c49.427,22.794,110.559,7.29,143.585-2.178
			c17.72,16.868-5.465,83.339,47.008,131.754C-3798.67,5165.96-3962.779,5115.522-3959.293,5023.288z"/>
		<path id="path10178" fill="#F6D155" d="M-4029.81,4668.987c20.535,65.569,78.594,72.584,102.301,86.187
			c-0.649,24.774-64.167,23.553-66.465,113.225C-4038.36,4864.374-4100.135,4760.649-4029.81,4668.987z"/>
		<path id="path11151" fill="#F6D155" d="M-3699.844,5210.714c80.018,13.503,108.997-29.436,126.943-31.833
			c9.297,26.203,45.062,60.302,79.809,78.137C-3509.322,5315.792-3703.329,5302.97-3699.844,5210.714z"/>
		<path id="path11153" fill="#F6D155" d="M-3082.734,4991.586c-4.668-9.984-96.6,1.144-113.198-13.657
			c-11.529,14.229-14.943,61.181-49.696,79.017C-3223.438,5097.093-3069.786,5083.81-3082.734,4991.586z"/>
		<path id="path2396" fill="#DFDDE2" d="M-2907.65,4173.245c13.712-1.628,26.973-3.552,38.194-6.851
			c-54.023,64.997-144.042,178.343-234.472,273.843c-90.678,95.742-173.192,190.175-141.864,275.823
			c-62.858-62.501-7.037-123.507,78.049-224.108C-3075.432,4382.773-2971.284,4256.957-2907.65,4173.245z M-3021.42,4866.419
			c0,44.556-37.012,85.691-126.223,81.513c100.536-110.345-102.741-117.173-54.353-162.19
			C-3067.125,4701.205-3011.375,4831.925-3021.42,4866.419z M-3117.459,4963.481c29.139,6.114,47.47-30.129,53.88-11.678
			C-3051.021,4988.288-3116.876,4995.017-3117.459,4963.481z M-3798.01,4581.448c-20.474-0.803-14.652,82.129-136.268,78.808
			c-2.172-0.583-13.591,0.066-20.001,11.48c-14.784,27.754,34.857,84.306,80.078,80.985c39.475-2.892,72.458-25.511,92.905-53.638
			c9.281-5.223,73.832-41.026,68.499-25.555c-75.746,36.958-56.844,60.368,63.287,69.132
			c75.746-11.238,140.034-76.818,167.254-90.464c-77.428,13.426-242.291-38.112-280.524-38.387
			c-5.448-14.085-16.532-25.621-34.23-32.24C-3797.345,4581.503-3797.675,4581.47-3798.01,4581.448z M-3933.931,5005.133
			c-1.985,6.928-6.081,11.799-11.32,15.482c21.459,13.657,79.127,9.996,85.527,5.311
			C-3866.086,5025.773-3913.484,5022.914-3933.931,5005.133z M-3367.518,4661.191c-103.049,50.317-173.923,232.037-429.695,208.175
			c-6.389,22.333-20.595,26.83-33.763,33.637c-53.347-0.715-114.847,12.03-114.226,45.369c0.748,40.366,62.88,65.602,104.506,60.588
			c42.131-5.069,86.076-45.271,86.12-85.647c0-0.011,0-0.022,0-0.044c1.375-3.277,3.519-5.883,7.939-5.85
			C-3463.546,4856.248-3420.084,4710.881-3367.518,4661.191z M-3322.38,4666.205c-11.216,68.758-234.269,273.788-244.638,340.94
			c-11.837-9.182-28.919-15.757-64.568-13.898c20.739,102.68-65.014,134.118-87.902,116.524
			c-0.126,46.37,67.422,65.657,111.197,57.245c51.456-9.875,94.538-88.649,64.7-136.559
			c6.779-84.933,118.448-109.663,165.209-218.787c41.196-0.417,47.453-64.227,98.639-76.081
			C-3290.502,4702.502-3332.402,4745.552-3322.38,4666.205z M-3981.203,4666.062c6.564,40.652,24.774,57.762,54.98,82.888
			c-24.307-8.709-48.322-15.516-74.91-39.003C-3976.727,4717.358-3995.267,4659.695-3981.203,4666.062z M-3446.903,4556.949
			c47.222,10.93,109.261,15.251,193.589,10.336C-3375.996,4610.378-3431.009,4595.732-3446.903,4556.949z M-3292.284,4479.769
			c0.203,6.575-9.907,19.221-19.281,27.358c59.169-1.133,116.887-13.36,158.82-60.137
			C-3191.704,4464.726-3235.864,4479.482-3292.284,4479.769z M-3208.67,4344.54c-4.305,7.906-19.71,24.609-31.305,36.749
			c48.844,5.443,146.323-17.231,188.267-64.007C-3090.673,4335.006-3152.245,4344.232-3208.67,4344.54z M-3094.499,4214.546
			c-8.753,9.5-37.579,37.441-48.272,46.458c48.844,5.443,159.078-33.582,201.011-80.358
			C-2980.713,4198.371-3038.073,4214.271-3094.499,4214.546z M-2937.526,4070.114c-3.002,56.08-21.904,91.805-42.285,115.601
			c16.912-5.531,33.829-9.182,50.747-16.912C-2930.692,4137.772-2933.541,4101.111-2937.526,4070.114z"/>
		<path id="path2431" fill="#F6D155" d="M-1366.061,4935.639c48.657,11.909,107.925-19.936,136.306-20.497
			c13.217,26.071,18.363,54.419,72.76,72.771C-1192.896,5027.796-1327.85,5040.969-1366.061,4935.639z"/>
		<path id="path5344" fill="#F6D155" d="M-822.365,5156.504c-17.912,17.682-37.738,36.528-71.737,56.893
			c60.852,55.387,184.699-6.817,179.861-60.478C-725.292,5131.664-760.986,5177.561-822.365,5156.504z"/>
		<path id="path7286" fill="#F6D155" d="M-585.105,4962.282c1.055,72.145-8.236,91.068-16.406,115.82
			c34.714,23.608,124.354-32.504,133.766-117.382C-477.136,4940.609-515.237,4975.741-585.105,4962.282z"/>
		<path id="path9228" fill="#F6D155" d="M-420.583,4563.602c-25.774,6.488-10.402,94.147-40.003,121.956
			c24.279,13.459,40.696,45.71,58.433,74.828C-345.272,4717.292-347.351,4594.599-420.583,4563.602z"/>
		<path id="path3402" fill="#DFDDE2" d="M-1304.065,4927.436c27.303-8.247,56.86-22.135,67.636-18.44
			C-1219.935,4850.805-1258.619,4884.629-1304.065,4927.436z M-1342.496,4880.802c53.429-0.539,128.213,8.555,146.543-62.512
			c82.723,39.717,169.404-36.727,150.161-107.101c0,0-26.687,121.593-197.807,44.578c-34.186-5.003-81.513,16.626-78.39,39.97
			C-1319.724,4825.525-1261.06,4850.893-1342.496,4880.802z M-890.001,4821.358c43.434,43.995,71.166,84.757,61.5,117.876
			c26.853-38.826,29.458-15.438,35.352-0.517c32.042,24.708,56.068,99.591-24.081,148.083c37.628,10.215,40.762,43.786-0.517,55.87
			c1.792,35.473,96.457-8.742,105.055,5.63c7.356-3.222,9.797-13.811,11.777-25.115c7.983-10.842,8.917-23.465,0.528-38.42
			c61.137-101.712-14.768-157.308-79.457-168.612C-819.495,4874.732-854.188,4849.903-890.001,4821.358z M-886.934,4711.695
			c65.184,41.213,153.889,73.409,237.777,128.114c83.888-83.613,145.795,54.43,25.632,63.546
			c30.327,55.881,158.408,52.22,154.746,7.697c79.753-151.139-136.449-188.151-179.344-133.766
			c-65.448-36.936-125.31-78.379-219.336-95.819c186.162,79.985,218.105,105.055,185.579,109.377
			C-711.515,4794.781-815.746,4735.722-886.934,4711.695z M-829.667,4595.468c51.131-22.311,162.07-19.243,191.891-45.941
			c48.954-89.111,139.759-65.547,168.645-7.554c20.64-0.209,36.1,4.277,38.376,20.771c-19.034,42.213-6.829,145.542-60.412,120.197
			c9.775-7.565,4.97-15.109,0-22.674c-22.762,22.905-22.916-3.222-23.268-13.822c-34.296,40.179-51.659,33.57-76.763,27.666
			c6.081-2.496,8.808-9.226,8.181-20.123c100.195-38.805,13.25-156.374-67.966-46.568
			C-678.56,4615.667-787.695,4591.136-829.667,4595.468z M-1631.91,4031.078l-3.794,11.942
			c41.279,37.408,398.45,430.734,504.638,599.005c-15.9-35.726-9.204-50.482-72.364-125.838
			c161.597,90.584,241.042,10.171,231.542-7.532c-13.14,1.54-21.662,3.343-28.766-0.363
			c-149.314,76.18-260.076-50.12-326.096-133.678c83.503,66.613,138.417,78.566,225.252,83.69
			c8.632-15.12,9.787-22.772,11.953-31.47c-7.576-1.43-14.855-3.442-20.75-8.192c-101.614,38.387-223.581-38.684-319.015-167.974
			c90.805,65.228,155.834,58.927,217.698,59.774c9.589-10.985,22.685-20.54,24.554-34.604c-8.742,0.66-15.537-2.518-22.652-5.036
			c-63.82,22.201-220.106,14.658-295.109-116.414c52.066,34.956,109.959,55.585,183.72,37.123
			c14.669-11.26,30.646-22.344,33.989-35.231c-91.41,23.157-180.345,22.816-261.748-49.075c23.158,0.231,47.514-8.049,72.354-19.507
			C-1524.479,4091.699-1573.994,4086.74-1631.91,4031.078z"/>
		<path id="path14081" fill="#C3BDC9" d="M-2740.05,1229.279c177.541,94.928,382.115-121.961,525.706-4.107
			c15.515,0.874,17.593-10.688,15.086-20.595C-2366.226,1054.977-2543.97,1275.259-2740.05,1229.279z"/>
		<path id="path2450" fill="#C3BDC9" d="M-2804.706,3955.558l-14.031,14.801c-17.247,77.95-58.086,140.198-105.369,199.753
			c43.236,7.026,96.336-17.418,147.698-39.63C-2808.318,4070.862-2815.158,4031.166-2804.706,3955.558z"/>
		<path id="path3421" fill="#DFDDE2" d="M-2754.994,3851.745c24.675,48.965,71.683-31.24,94.368-52.857
			c-29.695,105.968-88.787,213.157,40.284,312.703c-66.097,6.718-84.537,35.341-23.29,100.689
			C-2763.218,4153.408-2830.734,4055.83-2754.994,3851.745z"/>
		<path id="path4392" fill="#CECAD5" d="M-2655.584,3793.851c-41.202,209.33,26.731,291.074,95.016,310.834
			c-26.148-226.209,64.189-387.85,189.4-511.543c-8.39-210.836-37.953-305.457-61.055-457.454
			c1.661,70.429,51.566,263.221,17.671,397.988C-2449.751,3673.819-2550.089,3809.861-2655.584,3793.851z"/>
		<path id="path5363" fill="#C3BDC9" d="M-3071.501,4009.669c118.751,7.928,215.34-29.601,293.85-110.103
			c-43.049,105.099-140.885,154.317-286.296,139.66C-3011.342,4029.781-3010.017,4020.819-3071.501,4009.669z"/>
		<path id="path6334" fill="#C3BDC9" d="M-3086.082,3889.395c-11.348,17.736-20.348,26.258-29.359,34.703
			c187.344,24.389,291.805-65.107,362.147-143.255c103.812,5.916,175.429-61.446,237.59-129.939
			c-69.951,55.408-141.656,101.042-223.339,90.782C-2819.292,3858.375-2932.303,3912.663-3086.082,3889.395z"/>
		<path id="path7307" fill="#C3BDC9" d="M-3013.107,3747.008c-13.992,29.216-18.44,28.755-25.819,38.288
			c63.485,13.184,150.491-11.469,298.98-135.25c146.807-3.453,208.247-99.711,250.059-141.507
			c-78.022,67.405-157.188,103.164-237.59,104.121C-2805.355,3692.139-2890.645,3756.751-3013.107,3747.008z"/>
		<path id="path8278" fill="#C3BDC9" d="M-2964.181,3629.572l-26.682,41.807c51.087-2.848,118.372-0.748,261.594-132.556
			c110.268-23.278,208.901-105.781,295.439-250.07c-71.902,88.671-137.614,183.742-282.976,196.674
			C-2753.855,3570.369-2851.89,3605.776-2964.181,3629.572z"/>
		<path id="path9273" fill="#C3BDC9" d="M-1756.725,3803.979c-9.918,76.081-26.929,145.103-60.511,197.542
			c3.574,24.928,2.859,49.834,1.792,74.74C-1764.082,4023.942-1726.277,3874.969-1756.725,3803.979z"/>
		<path id="path10244" fill="#C3BDC9" d="M-1681.975,3840.452c55.266,143.563,5.729,334.508-170.855,367.529
			c54.584,22.641,218.281-52.033,241.152-274.086l134.36,151.26c7.257-34.78,12.041-69.879-13.327-121.01
			C-1596.965,3941.769-1630.986,3899.984-1681.975,3840.452z"/>
		<path id="path11215" fill="#C5BDCB" d="M-1594.766,3886.734c72.244,31.558,198.257,78.093,324.788,23.135
			c18.968,7.796,37.958,13.822,56.926,16.901c-42.972,45.017-163.906,55.848-274.932,40.96
			C-1335.107,3947.696-1567.056,3930.157-1594.766,3886.734z"/>
		<path id="path12186" fill="#C3BDCA" d="M-1846.595,3630.462c52.462,37.1,111.291,59.543,177.97,58.719
			c49.768,94.543,194.937,120.846,276.735,116.579c3.695,12.898,12.36,24.169,23.125,34.692
			c-68.318,0.297-155.802-21.915-290.095-106.771C-1694.983,3721.168-1822.899,3661.702-1846.595,3630.462z"/>
		<path id="path13157" fill="#C3BDC9" d="M-1874.195,3488.966c52.275,43.269,109.971,66.207,171.735,73.871
			c63.436,67.46,138.01,102.196,235.809,114.776l20.496,35.594c-30.733,3.079-179.542-63.491-234.049-113.896
			C-1771.525,3576.637-1840.074,3531.323-1874.195,3488.966z"/>
		<path id="path14128" fill="#C3BDC9" d="M-1862.616,3375.07c60.434,59.268,129.412,83.393,185.084,83.657
			c41.774,43.797,80.403,89.023,168.172,112.104c4.255,11.964,9.413,22.146,16.01,29.37
			c-66.075-1.122-156.869-92.817-168.172-107.673C-1750.193,3479.829-1850.927,3435.097-1862.616,3375.07z"/>
		<path id="path2423" fill="#DFDDE2" d="M-2389.977,3106.582c19.139-7.345,27.979-18.121,37.458-28.699
			c15.949,21.893,38.766,26.709,61.236,32.46c-42.719-1.518-48.102,18.572-27.534,53.682c8.769,14.02,23.762,224.087,27.534,350.881
			c0.462,117.448,16.252,193.738,39.998,244.737C-2344.223,3681.45-2292.679,3208.481-2389.977,3106.582z"/>
		<path id="path3394" fill="#CECAD5" d="M-2235.077,3115.323c51.939-4.86,103.257-7.774,164.802-44.94l22.432,26.214
			c-44.094,96.413-68.944,324.04-97.314,528.202c8.137-129.95,10.809-245.947,3.75-278.462
			c-14.207-73.354-11.37-117.998-9.973-129.863C-2123.363,3114.565-2200.28,3139.481-2235.077,3115.323z"/>
		<path id="path4365" fill="#C3BDC9" d="M-2027.885,3107.835l6.212,6.246c-87.396,190.868,0.44,628.496-188.416,849.097
			l-3.75-84.911C-2070.693,3783.79-2106.474,3301.408-2027.885,3107.835z"/>
		<path id="path5336" fill="#C3BDC9" d="M-2343.772,3578.594c-0.979,312.549,50.543,371.675-162.355,631.828
			c99.156-82.657,210.094-335.641,196.08-191.066c25.142-46.381,49.471-92.487,55.002-132.347
			C-2337.218,3746.667-2333.606,3665.407-2343.772,3578.594z"/>
		<path id="path6307" fill="#C3BDC9" d="M-2171.383,3923.219l-39.948,47.448l11.238,413.305
			C-2195.013,4212.479-2186.447,4054.862-2171.383,3923.219z"/>
		<path id="path7278" fill="#DFDDE2" d="M-2076.51,3623.557c-10.864,63.887-18.066,140.616-34.923,183.523
			c28.831,330.693,118.657,362.471,193.375,392.083C-2042.642,4022.391-2067.229,3785.131-2076.51,3623.557z"/>
		<path id="path8249" fill="#E0DEE2" d="M-2316.31,4056.831c-38.651,87.352-25.884,255.183-134.854,364.615
			c90.387-46.315,124.7-158.617,127.344-246.001l8.758,92.41c-30.002,189.405-115.985,240.976-176.067,252.225
			c9.534-2.639,103.813,17.252,190.45-174.792c2.864,69.758-46.188,147.456-109.916,173.549
			c55.711,1.848,110.982-49.306,139.324-88.66C-2317.074,4295.113-2317.926,4175.543-2316.31,4056.831z"/>
		<path id="path9220" fill="#C3BDC9" d="M-2274.404,4340.9c9.347,45.347,22.624,111.488,73.684,175.44l3.761,79.908
			c23.399-30.711,113.819-286.796,115.458-370.839c3.376-26.643,4.838-57.564,24.323-37.474c2.474,1.848,4.97,1.892,7.466-1.254
			c-27.347-18.726-56.167-111.191-77.95-141.716c16.252,100.009,28.93,241.625-73.058,452.649
			C-2231.509,4460.91-2253.462,4402.192-2274.404,4340.9z"/>
		<path id="path10191" fill="#DFDDE2" d="M-1838.293,4503.509c-109.905,56.442-204.426-79.677-249.751-164.225l20.354-115.425
			c0.462-3.827,8.544-6.675,12.173-1.551C-2037.441,4349.4-1957.083,4497.692-1838.293,4503.509z"/>
		<path id="path11162" fill="#DFDDE1" d="M-2107.683,4383.356l-11.865,34.956c42.368,93.994,92.179,126.685,157.166,150.469
			C-2089.936,4505.895-2098.589,4444.625-2107.683,4383.356z"/>
		<path id="path12133" fill="#DFDDE2" d="M-2230.068,4544.447l33.725,58.047l25.577-56.816
			c-4.783,153.218-14.756,338.258-19.32,508.838C-2204.184,4883.441-2223.427,4705.098-2230.068,4544.447z"/>
		<path id="path13104" fill="#C3BDC9" d="M-2131.401,4448.914c-3.123,8.753-6.257,17.022-9.391,22.465
			c113.214,420.332-20.045,644.473-49.933,677.406c-78.544-139.352-77.631-276.592-94.939-393.93
			c10.127,105.209-1.386,242.032,89.947,412.656l1.243,69.319c111.257-138.681,178.728-331.199,92.421-748.605
			C-2114.556,4477.833-2121.879,4462.274-2131.401,4448.914z"/>
		<path id="path14075" fill="#DFDDE2" d="M-2231.949,5198.729c9.512,15.24,17.748,30.701,36.848,44.325
			c24.598-25.676,29.898-38.508,40.586-54.925c-20.727,111.51-30.151,220.227-44.962,330.264
			C-2209.682,5409.587-2217.225,5291.006-2231.949,5198.729z"/>
		<path id="path15046" fill="#C3BDC9" d="M-2032.889,5216.839c-23.993-53.671-52.363-99.799-34.285-159.2
			c-3.442-18.319-11.04-21.101-19.298-24.983c-5.058,31.724-16.263,54.21-26.214,76.158
			c42.511,255.436-17.857,392.842-88.034,508.233c-115.095-154.856-93.686-321.72-95.588-464.514
			c-33.543,289.876,36.556,417.374,94.324,483.24l0.638,70.55c163.708-240.691,147.588-464.228,111.125-570.625
			C-2072.144,5163.432-2055.617,5192.219-2032.889,5216.839z"/>
		<path id="path16017" fill="#C4BEC9" d="M-2653.457,4483.892c21.975,210.551,289.298,146.752,397.795-12.513l-10.001-28.721
			C-2366.841,4573.674-2582.346,4690.121-2653.457,4483.892z"/>
		<path id="path16988" fill="#DFDDE2" d="M-2280.661,4561.281c-98.145,203.514-216.247,348.396-379.036,362.735
			c110.905,8.863,229.662-81.216,266.591-120.494c26.671-46.282,61.231-62.765,27.474-0.616
			c-13.08,21.805-26.11,37.749-46.826,57.454c26.225-10.655,80.54-94.499,91.772-101.789
			C-2316.051,4670.449-2296.077,4621.704-2280.661,4561.281z"/>
		<path id="path2439" fill="#C3BECA" d="M-2321.214,4765.751c-1.896,23.19-3.925,46.689-3.535,65.338
			c-154.559,158.771-288.089,209.044-429.992,175.693C-2637.589,5009.961-2501.79,5022.397-2321.214,4765.751z"/>
		<path id="path3410" fill="#DFDDE2" d="M-2821.849,4857.579c-34.027-84.449-21.288-152.492,38.854-203.975
			c-121.297-2.551-252.819,223.064-28.238,337.301c-112.401-65.657-118.074-202.612-81.414-247.607
			c24.482-39.091,60.527-50.01,35.479-6.257C-2874.536,4807.525-2842.928,4843.46-2821.849,4857.579z"/>
		<path id="path4381" fill="#DFDDE2" d="M-2095.071,4500.87c22.894,36.771,51.109,68.263,88.122,90.937
			c-10.05,205.933,216.467,342.502,369.948,284.301C-1725.188,4940.631-2015.746,4924.896-2095.071,4500.87z"/>
		<path id="path5352" fill="#C4C0CD" d="M-2061.599,4759.572v24.719c106.254,177.079,285.147,183.5,339.83,176.584
			C-1888.797,4957.719-1993.402,4880.263-2061.599,4759.572z"/>
		<path id="path6323" fill="#E1DFE3" d="M-1598.152,4630.644c141.045,97.853,102.098,249.993-49.449,313.451
			C-1531,4867.343-1473.711,4767.973-1598.152,4630.644z"/>
		<path id="path7294" fill="#C3BDC9" d="M-1763.257,4987.353c133.997,24.466,360.712-80.677,239.272-315.21
			C-1401.126,4814.804-1538.51,5071.054-1763.257,4987.353z"/>
		<path id="path8265" fill="#E0DEE3" d="M-2060.719,4900.837c-1.155,13.283-1.88,21.486-5.289,43.258
			c114.611,228.947,178.673,244.044,253.292,303.742C-1951.706,5143.958-2022.717,5025.85-2060.719,4900.837z"/>
		<path id="path9236" fill="#C4BECB" d="M-1872.732,5330.834c24.257,10.776,43.038,2.87,62.677,9.698
			c175.418,61.126,392.5-43.071,327.591-255.161C-1367.699,5197.222-1578.876,5518.524-1872.732,5330.834z"/>
		<path id="path10207" fill="#C3BECA" d="M-1564.604,5023.585c132.897,131.731-3.607,313.945-180.994,251.631
			C-1557.61,5300.573-1488.083,5144.738-1564.604,5023.585z"/>
		<path id="path11178" fill="#DFDDE2" d="M-2854.518,5022.694c-181.725,119.625-81.354,267.807,2.639,301.949
			c-31.943-23.553-66.031-106.133,33.565-60.038c32.779,14.063,61.962,15.548,90.068,13.261
			C-2914.215,5216.795-2872.897,5117.809-2854.518,5022.694z"/>
		<path id="path12149" fill="#DFDDE2" d="M-2322.99,4855.819c4.41,62.215,11.232,112.269,20.354,150.963
			c-58.394,116.634-128.878,194.42-201.353,249.883c85.032-82.261,150.667-164.687,179.24-251.631
			c-148.039,231.014-250.653,266.52-356.714,271.941C-2549.534,5247.913-2356.868,5133.995-2322.99,4855.819z"/>
		<path id="path13120" fill="#C3BEC9" d="M-2300.871,5015.613c4.068,18.671,8.456,37.144,19.452,51.23
			c-186.574,359.645-435.759,349.276-521.005,319.62c161.464,16.692,105.292-12.458,52.979-22.08
			C-2558.072,5370.507-2389.081,5240.645-2300.871,5015.613z"/>
		<path id="path14091" fill="#C4BECA" d="M-2454.474,3035.779c24.086-16.252,35.533-35.693,49.503-55.304
			c5.157,9.841,14.828,18.38,27.034,27.022c-35.302,11.557-47.651,63.557-67.515,63.832
			C-2448.607,3059.761-2448.695,3047.335-2454.474,3035.779z"/>
		<path id="path17000" fill="#C3BDC9" d="M-2375.946,3008.245c52.819,19.837,106.864,17.286,173.555-29.573
			c5.938,6.125,14.361,13.492,22.542,20.744C-2243.566,3044.828-2347.973,3033.162-2375.946,3008.245z"/>
		<path id="path17971" fill="#C3BDC9" d="M-2150.271,3007.816c37.518,6.312,74.212,14.844,123.034-11.914
			c7.07,9.363,14.119,16.763,21.178,23.812C-2022.014,3035.746-2102.053,3033.426-2150.271,3007.816z"/>
		<path id="path18942" fill="#C3BDC9" d="M-1995.48,2907.604c12.062,7.422,33.736,29.079,54.749,41.504
			c-15.603,21.898-31.195,46.793-46.788,74.586C-2057.025,2963.348-2008.291,2899.748-1995.48,2907.604z"/>
		<path id="path20882" fill="#C3BDC9" d="M-2503.104,2924.835c9.94,13.894,16.934,23.834,23.399,33.082
			c42.527-29.508,56.882-61.292,70.638-93.119c-6.235-3.563-12.145-8.676-17.231-18.11
			C-2459.823,2906.043-2480.947,2913.245-2503.104,2924.835z"/>
		<path id="path21853" fill="#C3BDC9" d="M-2405.976,2866.567l-4.86,9.264c83.998,48.179,220.486,84.295,393.76-3.541
			l-17.198-35.308C-2146.488,2924.912-2273.535,2939.729-2405.976,2866.567z"/>
		<path id="path22824" fill="#C3BDC9" d="M-2002.979,2866.116c49.504-9.336,32.328-70.902,78.137-89.606
			c75.081,112.923,203.381,83.602,255.612-2.21l8.39,63.573c-49.504,31.465-115.227,86.093-224.702,35.308
			c-8.643,18.264-10.589,47.035-11.04,78.115C-1944.558,2935.418-1983.176,2910.177-2002.979,2866.116z"/>
		<path id="path23795" fill="#C3BDC9" d="M-1851.104,2656.429c19.023,36.776,1.243,120.499,2.188,147.901
			c-36.518-5.003-56.772-34.808-76.367-59.593c3.86-0.72,6.433-1.82,7.939-4.871
			C-1912.812,2716.907-1870.137,2706.29-1851.104,2656.429z"/>
		<path id="path24766" fill="#C3BECA" d="M-2180.3,2759.747l-3.958,5.289c57.563,20.92,176.749,31.443,261.616-26.055
			l-14.999-26.918C-1996.954,2762.765-2072.87,2786.572-2180.3,2759.747z"/>
		<path id="path25737" fill="#C3BDC9" d="M-2213.849,2740.301c10.534,8.285,20.661,14.993,30.03,18.561
			c-79.011,72.282-193.199,52.588-308.261-7.939c1.193-3.535,0.253-7.087-0.874-10.622
			C-2360.073,2812.297-2267.146,2791.938-2213.849,2740.301z"/>
		<path id="path26708" fill="#C3BEC9" d="M-2498.694,2739.866c27.968,44.253-43.005,58.603-43.264,124.491l-27.814-35.313
			C-2570.927,2785.879-2513.209,2792.795-2498.694,2739.866z"/>
		<path id="path27679" fill="#C3BEC9" d="M-2575.952,2815.793l-54.287-82.541c-57.185-74.465,131.831-89.293,111.241-228.683
			c12.068,9.522,24.136,21.865,36.215,28.26c-6.917,112.258-105.231,109.3-106.837,186.299
			c-12.558-4.767-18.918-16.461-22.091-31.784c-4.844,3.662-5.955,4.047-11.023,9.264
			C-2646.562,2725.912-2611.469,2742.516-2575.952,2815.793z"/>
		<path id="path28650" fill="#C3BDC9" d="M-2524.216,2664.593c55.2,7.906,109.487-0.033,161.394-49.317
			c8.917,8.615,15.873,17.742,27.775,25.599C-2401.209,2681.159-2489.864,2686.635-2524.216,2664.593z"/>
		<path id="path29621" fill="#C4BECA" d="M-2332.54,2642.761l-6.251,4.976c91.707,52.478,219.639,52.104,288.463,5.009
			c-9.731-5.657-18.088-12.695-26.182-19.985C-2158.462,2693.04-2281.98,2673.599-2332.54,2642.761z"/>
		<path id="path30592" fill="#C4BEC9" d="M-2048.151,2652.745l-4.685,5.938c65.03,25.274,145.433,22.767,201.897-7.202
			c-3.859-10.71-8.137-21.079-15.284-29.337C-1927.426,2670.35-1987.871,2666.232-2048.151,2652.745z"/>
		<path id="path31563" fill="#C4BEC9" d="M-2473.09,2539.443c95.588,48.608,199.961,16.28,257.042-33.983
			c9.698,12.326,19.43,19.501,29.128,26.044C-2258.201,2594.038-2441.642,2586.203-2473.09,2539.443z"/>
		<path id="path32534" fill="#C3BDC9" d="M-2183.39,2532.829l-4.85,4.42c86.121,58.823,217.467,23.306,252.369,0.429
			c-4.41-13.844-8.819-25.901-13.239-36.188C-2009.599,2553.215-2099.491,2570.193-2183.39,2532.829z"/>
		<path id="path35449" fill="#C3BDC9" d="M-2715.012,2410.977l12.359,7.059c13.146-18.809,23.955-23.339,29.387-15.884
			c5.41,7.461-4.547,21.266,9.468,33.549c44.522-35.413,146.593-58.861,158.924-111.252c18.765,52.473,82.371,53.963,134.217,144.8
			c-12.271-68.978-83.003-87.841-112.01-134.211c-28.991-46.386-11.832-104.368,11.359-179.24
			c-48.107,65.178-10.215,157.715-88.693,199.131C-2609.836,2381.222-2704.863,2375.433-2715.012,2410.977z"/>
		<path id="path36420" fill="#C3BDC9" d="M-2302.636,2083.396l2.65,61.825c-81.645,31.916-18.028,236.155-50.373,280.771
			C-2363.262,2251.7-2435,2188.99-2302.636,2083.396z"/>
		<path id="path37391" fill="#C3BDC9" d="M-2236.341,2231.737h9.693c10.6,114.193,130.368,125.068,150.953,237.513
			c-25.434-77.95-93.444-100.668-129.774-142.15c-20.881,87.236-126.322,113.176-152.828,162.449
			C-2365.561,2448.974-2212.893,2392.125-2236.341,2231.737z"/>
		<path id="path38362" fill="#C3BDC9" d="M-2055.419,2122.25c-62.688,99.315,62.072,163.24-5.3,328.449
			c35.044-216.06-115.688-198.428-20.266-354.939c33.043,32.158,146.378,64.788,157.022,119.207
			C-1962.085,2161.198-2020.793,2157.085-2055.419,2122.25z"/>
		<path id="path39333" fill="#C3BDC9" d="M-1924.842,2229.082c11.832,38.211,22.333,53.396,31.79,78.583
			c-34.396,112.296-170.042,151.426-177.365,192.501C-2093.828,2447.67-1923.984,2418.421-1924.842,2229.082z"/>
		<path id="path40304" fill="#C3BDC9" d="M-1795.926,2114.312c-21.365-4.542-41.807-0.627-65.327-24.73
			c3.991,36.331-1.979,57.674-7.071,80.342c44.479,25.632,73.838,263.975,91.806,274.597c-9.16-102.51-5.003-237.442-67.076-310.801
			l2.65-12.354C-1822.14,2128.15-1807.691,2126.319-1795.926,2114.312z"/>
		<path id="path41275" fill="#C3BDC9" d="M-2628.474,2300.605c42.549-63.782,79.462-138.038,134.08-176.221
			c54.628-38.184,88.968-23.521,198.834-113.379l41.537-108.596c-92.756,136.119-202.106,229.332-360.338,196.883
			c9.429,5.333,14.68,18.363,79.474,22.074C-2568.419,2153.875-2597.262,2224.035-2628.474,2300.605z"/>
		<path id="path42246" fill="#DFDDE2" d="M-2651.434,1999.53c82.981,41.564,184.402,62.82,358.523-185.436
			c37.029-10.122,73.123-30.201,107.76-66.201C-2297.149,2016.865-2615.532,2181.288-2651.434,1999.53z"/>
		<path id="path43217" fill="#F1EEF0" d="M-2280.54,2154.925c132.831-500.734,535.503-799.874,187.217-1066.592
			C-1840.789,1526.148-2242.697,1711.326-2280.54,2154.925z"/>
		<path id="path44188" fill="#DFDDE2" d="M-2376.837,1721.398c6.856,131.528,173.269,33.994,212.91-52.099
			C-2231.3,1714.762-2298.034,1755.761-2376.837,1721.398z"/>
		<path id="path45159" fill="#DFDDE2" d="M-2126.849,1517.434c15.273-22.558,18.122-1.727,44.094,4.415
			c-60.83,126.833-163.791,161.47-219.881,164.23C-2226.638,1646.625-2156.813,1601.251-2126.849,1517.434z"/>
		<path id="path46130" fill="#C3BDC9" d="M-2167.622,1305.421l13.107,13.107c18.331-0.753,36.617-0.578,54.958-17.467
			c0.264,15.938-5.751,23.091-13.745,27.473c10.292,92.234,0.121,146.021-12.678,187.19c15.999-16.235,29.029,7.043,43.423,5.971
			c22.926-36.199,62.182-162.025-0.814-271.21C-2081.601,1281.851-2115.413,1314.135-2167.622,1305.421z"/>
		<path id="path47101" fill="#C3BDC9" d="M-2384.358,1265.357c100.816-41.015,158.413,31.146,203.618,37.964
			c71.892,105.759-2.584,197.823-50.769,254.287C-2199.488,1502.82-2152.613,1282.78-2384.358,1265.357z"/>
		<path id="path48072" fill="#CECAD5" d="M-2293.801,2213.209c109.75,51.401,160.827-73.398,212.816-121.857
			c-25.885-59.367-18.429-108.107-20.277-159.815C-2196.597,1983.355-2193.914,2171.375-2293.801,2213.209z"/>
		<path id="path49043" fill="#CECAD5" d="M-1919.113,1330.25c-8.995,4.145-9.765,39.481-22.058,38.859
			c-7.653,252.44-237.205,392.771-291.206,757.556c33.516-39.069,57.63-192.968,143.86-334.426
			C-1998.636,1644.603-1910.218,1561.764-1919.113,1330.25z"/>
		<path id="path50983" fill="#DFDDE2" d="M-2036.627,1807.387c-91.431,246.672,89.793,248.663,105.452,329.021
			C-2118.998,2073.247-2132.171,1936.232-2036.627,1807.387z"/>
		<path id="path51954" fill="#DFDDE2" d="M-2002.969,1100.022c304.126,197.729,43.236,596.855-70.407,704.236
			C-2028.457,1703.442-1754.339,1425.926-2002.969,1100.022z"/>
		<path id="path52925" fill="#CECAD5" d="M-1900.574,990.755c31.174,57.163,81.315,147.197,7.488,129.252
			c129.368,287.138-12.513,434.714-83.734,594.387c-149.941,391.126,98.37,236.034,69.385,508.789
			c84.493-98.634-25.467-241.796-20.706-291.124c-6.092-71.633,39.091-226.429,53.781-320.087
			c18.044,51.648,45.71,82.932,78.665,103.01C-1853.742,1511.667-1672.353,1110.886-1900.574,990.755z"/>
		<path id="path3457" fill="#CECAD5" d="M-1870.61,1663.796c14.603,20.227,24.95,43.324,48.69,57.438
			c12.194,79.572-99.502,331.869,68.691,350.859C-1890.062,2140.361-1964.625,1944.501-1870.61,1663.796z"/>
		<path id="path3459" fill="#C3BDC9" d="M-1944.25,911.732c28.601,2.04,96.94,50.01,160.684-0.885
			c43.786,59.554-37.793,109.954-123.562,65.404C-1929.504,961.891-1858.515,955.238-1944.25,911.732z"/>
		<path id="path4430" fill="#DFDDE2" d="M-2451.796,933.323c25.73,28.545,51.995,43.324,76.175,112.384
			c17.896,0.187,35.786,2.304,53.688,7.488C-2352.102,1005.374-2388.641,961.357-2451.796,933.323z"/>
		<path id="path5401" fill="#C3BDC9" d="M-2175.132,850.287c264.519,70.534,239.602-52.27,287.049-69.929
			C-1841.097,855.494-1970.135,952.957-2175.132,850.287z"/>
		<path id="path6372" fill="#C3BEC9" d="M-2498.617,902.732c-14.982-5.152-28.798-4.211-37.479-3.128
			c23.553-189.631,233.807-69.203,347.241,1.869C-2332.045,832.941-2511.4,745.803-2498.617,902.732z"/>
		<path id="path7343" fill="#F1EEF0" d="M-2497.99,902.732c-11.771-215.587,298.986,30.657,442.659,39.316
			c-99.964,11.348-429.574-207.972-427.682-35.572L-2497.99,902.732z"/>
		<path id="path8314" fill="#C3BDC9" d="M-2478.005,908.978l26.209,9.984c2.573-18.864,9.775-40.559,19.364-42.456
			c60.979-12.118,3.811,19.952,13.734,29.97c11.491,8.109,24.312,16.241,37.452,24.345c0.616-9.16,1.253-19.974,1.869-32.471
			c1.05-49.108,142.09,29.969,241.092,62.44c10.941,29.288-54.925,66.02-106.766,55.557
			c47.101,37.265,146.461,19.177,189.114-41.823c76.004,5.768,92.784-6.68,109.784-25.599
			c-58.158-12.057-84.966,16.549-230.619-23.718C-2310.734,886.805-2474.272,772.672-2478.005,908.978z"/>
		<path id="path9285" fill="#B6B1BF" d="M-2356.89,884.616c16.428-1.561,31.421,3.975,46.205,10.628
			c-29.689,45.93,13.844,89.771,38.172,83.03c8.208,7.494,16.565,14.982,44.314,22.476
			C-2267.377,1008.92-2398.488,968.543-2356.89,884.616z"/>
		<path id="path10256" fill="#AAA3B5" d="M-2281.903,919.589c18.479,14.74,112.115,29.931,114.281,38.701
			C-2197.619,1029.015-2295.626,1007.188-2281.903,919.589z"/>
		<path id="path11227" fill="#C3BDC9" d="M-1654.661,2833.893c-0.66,1.298-2.089,2.045,0,5.295
			c22.289,11.007,49.856,17.637,82.118,20.31l76.807,452.918c-5.85-117.844-14.042-239.646-16.769-352.278
			c-8.577-21.64-14.899-61.5-21.189-101.52c9.709-1.034,19.43-2.595,29.128-5.289c48.657,286.241,167.655,343.86,190.714,366.391
			c-62.93-66.207-147.951-159.31-175.705-372.593c42.181-23.515,61.391-52.033,75.069-56.486c4.223-12.096,1.529-40.971-4.42-54.749
			c-42.367,40.498-80.622,88.127-165.995,81.244c-5.729-0.484,0,7.939,0,7.939
			C-1551.881,2869.294-1618.66,2842.167-1654.661,2833.893z"/>
		<path id="path12198" fill="#CECAD5" d="M-1490.436,3360.995l3.541,68.868c42.598-27.512,82.569-35.946,139.495-166.886
			c23.256,232.092,26.236,457.74,161.586,504.154c-69.935-159.486-70.078-334.607-75.048-503.274
			c-8.247,10.633-16.494,18.253-24.729,25.609c-55.673-32.229-72.75-58.004-102.428-87.407
			C-1406.658,3259.898-1415.971,3320.684-1490.436,3360.995z"/>
		<path id="path13169" fill="#DFDDE2" d="M-1389.878,2800.075c18.727,6.911,39.816,9.077,61.819,9.374l23.741,337.092
			L-1389.878,2800.075z"/>
		<path id="path14140" fill="#C3BDC9" d="M-1229.403,2775.729l11.227-8.12c27.468,61.918,64.568,116.59,118.635,158.567
			l145.466,978.932l-210.386-981.428c-1.044,169.024-47.777,281.183-123.639,357.088l-8.115-64.293
			C-1216.526,3108.066-1168.584,2978.341-1229.403,2775.729z"/>
		<path id="path15111" fill="#C4BEC9" d="M-1007.152,3000.459c22.058,13.305,47.458,24.125,76.169,32.46
			c88.309,295.308,121.638,877.467,5.63,1088.226l-9.996-79.919c-203.084-155.23-253.677-587.723-294.692-829.744l6.235-11.865
			c39.179,221.096,85.384,646.793,284.092,819.738c35.792-113.192,113.115-439.663-25.61-983.941
			C-975.539,3023.76-992.286,3012.115-1007.152,3000.459z"/>
		<path id="path16082" fill="#DFDDE2" d="M-1131.396,2685.821c17.495-2.15,27.127-0.918,54.958-7.488l193.54,289.034
			L-1131.396,2685.821z"/>
		<path id="path17053" fill="#DFDDE2" d="M-923.462,3035.416c28.018,9.588,63.656,17.659,99.865,25.599
			c1.1,8.819,283.157,734.156,480.128,789.796c-251.808,49.999-378.294-391.665-542.563-652.446
			C-897.709,3143.242-910.135,3088.878-923.462,3035.416z"/>
		<path id="path18024" fill="#C3BDC9" d="M-956.252,2599.035c-2.386,3.788-4.805,7.576-8.819,9.72
			c114.765,177.739,117.536,286,102.406,383.154l46.799,60.923c23.3-135.916-1.87-236.193-34.429-331.055l571.251,829.92
			l-505.034-807.863l106.826,15.026C-766.286,2728.975-856.419,2718.743-956.252,2599.035z"/>
		<path id="path18995" fill="#C3BDC9" d="M-611.946,2760.748c21.805,0.187,41.422-1.094,56.2-5.619
			c113.17,184.413,404.948,519.471,370.839,975.177l-35.572-69.297c-270.699-62.545-459.004-402.683-555.032-540.672
			c158.507,208.956,338.082,481.557,548.149,524.42C-209.978,3304.542-466.613,2970.831-611.946,2760.748z"/>
		<path id="path19966" fill="#DFDDE2" d="M-552.744,2754.447l9.721,16.774c250.444,133.271,531.446,397.356,705.468,203.03
			c-180.367,72.469-472.497-181.972-664.86-278.083l8.819,41.488C-514.874,2747.959-533.754,2751.027-552.744,2754.447z"/>
		<path id="path20937" fill="#DFDDE2" d="M-907.683,2442.761c0.66,7.131-0.088,12.865-1.781,17.671l311.702,193.347
			l-284.312-226.902C-888.924,2434.14-898.512,2437.818-907.683,2442.761z"/>
		<path id="path21908" fill="#C3BDC9" d="M-519.536,2624.639c5.443,20.782,11.722,40.707,14.987,63.694
			c372.807,172.417,596.256,129.956,704.248,62.418l-57.443-21.217C-21.859,2838.115-418.989,2691.462-519.536,2624.639z"/>
		<path id="path22879" fill="#C3BDC9" d="M-815.481,2329.953c-0.022,4.998-1.958,9.995-3.739,14.982
			c158.265,83.481,269.082,238.535,264.728,345.268l53.693,44.325c-20.683-178.459-84.669-245.193-149.226-311.554L107.3,2719.546
			l-735.476-344.641c98.084-22.272,200.346-27.858,284.708-129.857l173.56-6.251c148.028-22.701,316.299-108.393,333.375-188.542
			l-55.551,6.257c-71.067,157.077-351.101,151.673-496.347,157.319C-455.716,2340.064-669.807,2349.438-815.481,2329.953z"/>
		<path id="path23850" fill="#DFDDE2" d="M-392.17,2295.624c-18.902,15.169-38.783,26.44-59.323,34.951
			c79.16,16.763,152.877,38.184,220.403,64.937c195.849,20.535,389.851-9.363,398.318-176.062
			C84.923,2352.171-149.929,2327.727-392.17,2295.624z"/>
		<path id="path24821" fill="#DFDDE2" d="M-818.604,2178.858c5.355,16.235,7.433,30.536,10.611,46.205l401.452-10.605
			C-543.914,2202.598-684.355,2192.284-818.604,2178.858z"/>
		<path id="path25792" fill="#C3BDC9" d="M-625.054,2017.167c81.634,37.205,156.022,78.924,216.016,126.118l-53.067-48.701
			c171.713-14.163,346.351-27.858,539.44-38.695l-610.605-3.76L-625.054,2017.167z"/>
		<path id="path26763" fill="#C3BDC9" d="M-754.047,2031.319c-1.825,8.533-6.411,17.06-9.72,25.599l134.228-38.86
			c200.809-143.986,210.331-216.021,235.731-294.01l306.381-190.714l-347.891,173.043c-188.943,1.836-237.238,28.023-294.9,43.28
			c160.145-34.708,265.454-40.646,324.04-22.085l-37.079,22.971C-491.574,1909.996-671.786,2002.9-754.047,2031.319z"/>
		<path id="path27734" fill="#DFDDE2" d="M-755.542,1900.413c5.74,10.133,6.62,22.707,9.369,34.346
			c95.852-51.291,185.381-108.898,274.723-166.699C-566.17,1814.528-660.845,1861.954-755.542,1900.413z"/>
		<path id="path28705" fill="#DFDDE2" d="M-497.071,1920.403c107.826-9.116,217.456-11.672,330.286-2.502
			c26.335-14.839,299.596-94.609,233.499-239.118c-78.588,158.259-370.377,212.442-393.336,225.384
			C-372.52,1908.835-485.855,1913.437-497.071,1920.403z"/>
		<path id="path29676" fill="#DFDCE1" d="M-46.303,1513.338l60.566-26.236c6.466,12.261-37.331,94.587-114.941,180.686
			c-101.328,112.318-160.904,160.987-353.938,195.789c3.761-5.152,7.213-10.303,10.149-15.45
			C-295.219,1807.519-89.869,1661.938-46.303,1513.338z"/>
		<path id="path30647" fill="#DFDDE2" d="M-688.115,1671.911l-17.473,27.457c172.098-124.018,308.217-199.786,412.062-232.24
			c103.065-108.926,126.575-216.532,83.646-279.088C-203.271,1389.402-522.945,1539.992-688.115,1671.911z"/>
		<path id="path31618" fill="#C3BEC9" d="M-798.625,1748.701l-6.234,51.203c127.19-92.85,195.695-261.473,177.937-403.958
			l-45.589,46.826l-198.532,161.091c10.677,9.561,22.399,19.139,29.975,28.716l168.557-184.804
			C-661.34,1600.003-763.921,1718.22-798.625,1748.701z"/>
		<path id="path32589" fill="#DFDDE2" d="M-625.669,1510.209l-11.887,42.456c82.14-51.736,139.715-106.05,190.428-161.08
			c142.079-165.17,160.563-308.701,172.318-377.723l-61.16,49.312C-326.106,1273.027-561.343,1475.221-625.669,1510.209z"/>
		<path id="path33560" fill="#C3BDC9" d="M-695.604,1392.207c23.718-1,47.437-1.666,71.188,0.632l279.055-320.285L-695.604,1392.207
			z"/>
		<path id="path34531" fill="#C3BDC9" d="M-901.008,1210.531l-34.34,39.954c14.69,78.682,14.141,184.639-102.383,313.407
			l3.739,6.878l8.104-2.501c92.3-114.979,189.417-144.817,286.577-173.577c-56.563,14.091-112.995,23.355-176.683,56.211
			C-872.562,1319.056-891.893,1251.552-901.008,1210.531z"/>
		<path id="path35502" fill="#DFDDE2" d="M-887.89,1315.422l-0.626,25.587c99.832-61.391,200.94-135.998,292.185-237.859
			c53.265-68.643,121.736-164.885,129.862-295.957l-52.44,41.224C-529.279,1066.319-810.148,1253.993-887.89,1315.422z"/>
		<path id="path36473" fill="#DFDDE2" d="M-1114.55,1287.327c80.974-35.028,159.991-68.208,214.795-78.665l351.497-326.547
			c-93.982,68.048-291.547,239.047-384.518,308.431C-964.807,1214.451-996.937,1213.67-1114.55,1287.327z"/>
		<path id="path37444" fill="#F1EEF0" d="M-529.542,850.897c-888.683,155.098-1382.335,1227.265-787.883,1130.665l-33.098-8.104
			c-118.943,10.485-149.358-93.13-137.802-158.754c10.545-71.589,78.819-110.933,98.447-117.663
			c-5.256-63.216-7.323-125.904,54.331-178.728c24.741-59.818,52.968-90.618,81.15-121.742
			C-1160.975,1058.336-689.6,889.873-529.542,850.897z"/>
		<path id="path41328" fill="#C3BDC9" d="M-943.463,1247.978c-111.082,16.181-263.354,139.088-286.423,190.417
			c-2.32,5.163,1.297,12.508-38.233,33.725l1.87,6.878c38.145-16.219,141.342-0.682,44.335,23.713
			c63.612-1.71,118.999,23.438,156.077,108.008c205.416-31.284,256.294,118.861,204.789,218.528
			c135.404,117.371,49.746,268.571-24.345,296.55c45.149,100.437,69.022,233.895-69.308,285.323
			c-0.396,89.59-12.744,229.084-224.768,227.259c-25.346,60.346-100.657,163.466-228.507,108.64c0,0-0.121,3.684-1.243,7.477
			c-2.067,7.065,52.858,20.826,53.683,17.489c43.577,5.02,48.668,33.499-4.376,21.228c-19.199-5.707-36.243-10.325-49.922-16.846
			l0,0c0.286,4.563,0.462,9.149-2.507,13.723c138.054,47.684,217.643-35.698,260.978-107.376
			c164.587-8.637,232.708-99.365,240.999-241.004c134.799-84.466,115.798-211.815,74.289-299.673
			c120.109-89.837,111.51-247.53,20.596-320.917c61.731-207.147-122.968-263.001-220.392-248.481
			c-32.768-55.222-54.188-63.216-77.401-78.67l174.165-236.611l-211.628,217.885c-21.112-7.247-48.625-10.441-83.042-9.358
			C-1188.948,1353.127-1012.87,1267.71-943.463,1247.978z"/>
		<path id="path42299" fill="#F6D155" d="M-2703.39,1149.971c-146.862-282.525,276.598-328.229,319.636-98.656
			c0,0,106.842,4.25,199.89,53.704c181.115,131.528,71.177,206.801,34.648,200.748c-84.499,1.468-100.376-79.644-223.746-48.668
			c-29.65,11.067-31.245,26.292-44.489,25.846c-73.514-18.671,61.292-166.303,206.119-59.928c12.909,9.484,41.081-9.05,16.23-36.848
			c-97.094-97.958-265.371-44.121-302.268-34.95C-2544.36,1075.017-2648.305,1092.462-2703.39,1149.971z"/>
		<path id="path43270" fill="#DFA12F" d="M-2562.3,1000.75c26.423,39.426,70.704-11.029,144.85,66.795l8.736-3.744
			c-16.675-66.96-61.923-107.7-128.625-114.875c28.419,24.972,7.741,26.44,6.614,42.4
			C-2531.698,1005.352-2530.308,1022.522-2562.3,1000.75z"/>
		<path id="path43272" fill="#DFA12F" d="M-2679.682,1121.86c40.229-21.866,127.905-54.672,183.556,23.735
			c175.331-51.28,299.453-4.261,316.629,66.179c10.886-19.171-38.596-125.25-238.569-107.381
			C-2588.806,984.982-2685.604,1092.94-2679.682,1121.86z"/>
		<path id="path44243" fill="#DEA12F" d="M-2412.458,1272.345c-30.437-1.292,64.37-113.33,219.864-6.257
			c55.706,21.794,82.271-6.603,71.803-52.451c-3.694-33.752-22.388-52.55-33.725-78.649c78.104,58.686,87.616,131.05,34.714,160.206
			C-2202.105,1336.215-2259.95,1190.216-2412.458,1272.345z"/>
		<path id="path47152" fill="#C3BDC9" d="M-2541.144,2870.553l34.286,49.641l-9.462-5.916
			c-97.644,46.672-148.061,28.408-196.272,7.104l-4.723-3.552c-100.305,19.831-164.153-6.499-217.528-46.112
			c3.772,29.865,24.708,52.863,52.011,73.299l-105.215,461.072l50.829-432.708c-60.335,169.013-139.335,248.03-248.267,295.577
			l8.263-47.305c99.546-50.889,184.633-147.313,224.636-355.824c-39.673,5.261-79.369,10.144-120.587,0l-99.316,341.639
			l47.283-353.482c-43.148-28.573-79.275-64.139-114.66-100.487v-5.894c10.633,15.147,21.635-30.855,20.09-44.941
			c74.217,120.912,180.01,143.525,282.558,108.772c-0.385,11.425,0.165,21.574-4.717,39.03l4.717-1.209
			c4.31-0.253,6.07-10.947,8.868-20.084c-3.035-2.067-3.794-7.049-5.316-10.644l1.177-3.552
			c56.733,102.136,197.658,54.314,215.174,62.666c-2.161,5.443,1.237,20.167,3.552,33.093l2.375,3.541
			c2.749-5.905,3.145-14.19,1.177-24.812l-4.729-9.479l4.14,2.386C-2662.655,2918.105-2596.794,2915.752-2541.144,2870.553z"/>
		<path id="path48123" fill="#C1C0C8" d="M-2868.06,2952.11c32.328,15.081,66.103,27.572,102.873,34.874
			c-17.346,216.274-126.916,463.584-242.373,536.751l2.963-60.906c-28.276-47.239-50.669-123.012-56.75-277.824l9.446-9.446
			c2.65,107.804,14.339,206.9,50.24,282.552c54.925-41.257,174.847-178.794,193.331-443.357
			c1.006-16.175-3.431-26.308-12.436-31.311C-2842.296,2971.535-2855.227,2961.82-2868.06,2952.11z"/>
		<path id="path49094" fill="#C3BDC9" d="M-3285.983,3867.194c124.766,33.252,207.373-207.483,254.881-369.563
			c-21.811-43.434-52.957-88.463-55.068-285.444l-10.65,10.655C-3110.015,3475.298-3112.373,3754.024-3285.983,3867.194z"/>
		<path id="path50065" fill="#DFDDE3" d="M-3226.231,2767.697l7.521,7.516c-9.363,47.695-73.766,220.788,5.85,389.538
			C-3257.394,3099.038-3294.587,2995.022-3226.231,2767.697z"/>
		<path id="path51036" fill="#C3BDC9" d="M-3293.966,2873.841l-24.23,38.458l-265.019,1075.917l280.903-896.204
			c13.943,52.22,31.487,106.441,104.506,191.451c-103.104,365.704-266.657,692.284-407.136,778.305l13.382-44.303
			c-59.856-181.18-11.931-561.85,90.288-944.663c-65.267,209.836-199.83,668.796-114.545,1003.184l-26.742,82.778
			c278.077-189.977,441.664-665.97,503.274-908.728c-15.097,12.128-32.048,18.682-49.328,24.235
			C-3275.9,3196.111-3318.025,3070.042-3293.966,2873.841z"/>
		<path id="path52007" fill="#C3BDC9" d="M-3460.973,2572.623c6.966,32.982,45.776,71.804,65.03,105.231
			c10.331,17.264,21.893,23.982,36.666,3.546l11.815-18.913c29.029,32.587,68.543,49.861,126.509,40.179l-69.753,160.789
			c-80.914,156.775-188.652,190.654-295.577,228.15l33.109-61.478c139.198-13.294,238.695-150.557,290.832-277.797
			c-34.742-7.802-68.241-21.393-107.441-46.942l-164.472,285.741l108.772-288.463
			C-3403.596,2657.314-3461.138,2621.753-3460.973,2572.623z"/>
		<path id="path52978" fill="#CECAD5" d="M-3527.174,3072.692c-19.474,8.104-39.772,15.384-61.489,21.288
			c-178.877,401.034-279.248,758.952-598.23,870.847c289.53,54.914,484.158-408.951,554.499-548.094
			C-3580.697,3290.423-3549.859,3172.854-3527.174,3072.692z"/>
		<path id="path53949" fill="#E0DEE4" d="M-3487.077,2583.773c-32.537,39.014-143.217,193.76-73.563,452.237l5.85-7.521
			C-3604.635,2857.1-3552.75,2666.034-3487.077,2583.773z"/>
		<path id="path54920" fill="#C3BDC9" d="M-3606.378,2812.033c-9.341,67.119-5.888,119.851-2.963,173.17
			c-217.016,384.347-579.421,739.154-788.581,753.702c266.812-357.391,533.596-726.701,800.407-1090.03
			c17.148-7.301,34.285-19.078,51.417-30.728c-27.979,41.284-40.922,75.047-46.695,105.226l-733.601,940.463
			c245.161-20.321,646.915-601.204,707.002-757.825C-3618.957,2859.079-3613.031,2834.08-3606.378,2812.033z"/>
		<path id="path55891" fill="#DFDCE1" d="M-4353.592,3677.437l17.159-21.288c-21.124-362.889,389.961-794.332,500.679-929.835
			C-3854.117,2765.608-4378.141,3225.866-4353.592,3677.437z"/>
		<path id="path56862" fill="#DFDDE2" d="M-4651.517,3027.751c61.55,96.457,165.093,156.813,553.295-79.193
			c77.642-85.554,155.285-173.522,232.927-247.068l-18.924-1.171C-4014.955,2754.887-4352.432,3108.407-4651.517,3027.751z"/>
		<path id="path57833" fill="#C3BDC9" d="M-3641.84,2346.81c-49.718,20.628-241.939,90.216-261.292,306.205l-41.383,23.053
			c261.396,87.028,460.538-110.405,500.107-147.198c-40.773-26.104-82.343-47.426-117.058-109.943l-34.269,16.549
			c-84.41,70.149-186.173,137.812-284.339,203.354l304.44-154.867c17.643,19.782,37.886,40.201,80.386,66.201
			c-184.468,126.718-328.664,120.411-399.021,102.268C-3884.086,2527.551-3809.556,2421.286-3641.84,2346.81z"/>
		<path id="path58804" fill="#CECAD5" d="M-3936.009,2603.83c-5.718,26.341-12.382,53.649-11.694,73.574
			c-83.239,32.796-175.094,58.884-278.379,76.087c-5.855,1.638-33.098,12.09-43.489-7.532c-11.875-7.67-25.192-9.611-39.283-8.346
			c-2.414-6.466-15.488-3.612-17.143-9.627C-4073.052,2684.172-3957.633,2623.617-3936.009,2603.83z"/>
		<path id="path59775" fill="#DFDDE1" d="M-4219.397,2417.404c-66.663,32.471-344.278,180.015-392.077,321.033
			c135.201,40.965,236.781,5.157,298.018-0.632c-2.798-3.876-14.174-3.112-15.455-9.413
			c-100.959,14.586-221.47,21.382-254.985,1.671l25.071-12.541C-4551.008,2597.875-4264.833,2448.061-4219.397,2417.404z"/>
		<path id="path60746" fill="#C3BDC9" d="M-4542.942,2713.36c452.275-167.485,671.556-302.411,912.918-383.72v8.34
			c-19.309,12.244-177.827,49.427-239.927,139.621L-4542.942,2713.36z"/>
		<path id="path61717" fill="#C3BDC9" d="M-3708.596,2354.716c-31.327,13.124-61.742,23.57-94.488,40.96
			c-147.703-21.475-171.729-58.333-234.907-88.616l12.541-5.02c23.399,17.011,52.352,30.299,80.249,44.308
			c43.302,14.614,53.858-2.865,10.864-18.38c-51.857-16.51-84.306-38.755-112.841-60.198
			c50.884-98.601,170.756-145.537,186.426-152.998c-66.449,43.203-143.102,81.441-163.026,147.131
			c103.164-15.279,212.535-33.345,346.934-62.693c10.122,17.852,19.98,35.506,39.3,61.022l-3.343,4.189l-20.079-24.246
			l-360.31,27.594C-3921.313,2336.149-3814.669,2342.67-3708.596,2354.716z"/>
		<path id="path62688" fill="#DFDDE2" d="M-4634.368,2216.755c41.938,139.154,390.758,103.708,597.037,89.271l10.649-3.546
			c-16.73-11.645-31.333-23.256-40.185-34.874C-4152.679,2249.606-4542.552,2331.526-4634.368,2216.755z"/>
		<path id="path63659" fill="#DFDDE2" d="M-3977.024,2140.509l4.129,3.552c-24.427,20.584-48.855,38.475-73.294,67.96
			c-323.16,0.742-526.563-128.026-584.045-202.744c79.902-64.612,180.785-87.292,287.292-98.732
			c-91.558,27.198-198.747,43.038-247.684,101.08h-23.059C-4463.64,2179.287-4063.431,2254.015-3977.024,2140.509z"/>
		<path id="path64630" fill="#C3BDC9" d="M-4570.537,2016.964c214.856,30.239,424.422,56.514,644.936,91.019
			c29.815-26.198,83.305-43.346,166.699-49.053c-28.293-0.753-51.73-3.711-96.358,2.953
			C-4101.07,2065.39-4333.233,2034.755-4570.537,2016.964z"/>
		<path id="path65601" fill="#C3BDC9" d="M-3649.526,1984.438c-20.134,21.052-30.833,51.549-38.425,85.12
			c-236.237-77.048-274.701-225.016-282.591-239.998c141.963-98.562,227.501-61.847,345.251-64.437
			c-250.229-11.645-316.046,53.869-326.915,66.806c93.944,25.736,160.376,49.553,361.789,82.755
			c-19.26,13.674-31.366,26.33-39.607,38.425c-77.807-31.772-221.558-75.861-323.941-115.864
			c16.153,68.241,121.758,170.965,210.43,197.438c24.791,6.564,51.846,18.847,61.484-12.409
			C-3678.286,2009.382-3658.702,1989.221-3649.526,1984.438z"/>
		<path id="path66572" fill="#DFDDE2" d="M-4548.066,1674.094c44.561,45.259,217.352,194.628,532.023,157.248
			c12.013,30.717,24.032,41.988,36.056,54.386c-83.52-12.723-167.331-21.976-252.407-15.956
			C-4370.686,1828.147-4496.957,1777.967-4548.066,1674.094z"/>
		<path id="path67543" fill="#DFDDE2" d="M-3906.095,1739.124c4.91,2.975,9.544,6.218,15.955,7.681
			c-51.511,20.419-91.316,42.637-122.347,66.207c-158.705-49.158-383.88-166.237-465.239-313.885
			c98.266-43.813,264.986-23.499,361.784,0c-107.392-1.001-235.666-22.85-299.717,19.501l-48.47-17.148
			C-4444.82,1564.535-4107.217,1858.842-3906.095,1739.124z"/>
		<path id="path68514" fill="#C3BDC9" d="M-4398.505,1526.901c201.633,70.468,393.001,140.149,553.894,207.478
			c50.191-12.172,99.167-8.753,147.775-0.588c-11.177-10.99-22.817-20.606-32.504-36.05l-4.14,1.759l20.101,26.605
			C-3986.844,1632.875-4188.84,1582.167-4398.505,1526.901z"/>
		<path id="path69485" fill="#DFDDE2" d="M-3764.219,1606.694c-15.334-29.013-29.931-58.741-31.327-101.669
			c-75.691,35.572-421.954-114.319-504.247-302.658C-4294.153,1368.208-3998.51,1498.114-3764.219,1606.694z"/>
		<path id="path70456" fill="#C3BDC9" d="M-3563.818,1710.149c-10.407,11.491-19.243,25.312-32.521,32.521
			c-6.735,4.338-12.964,3.513-18.924,0c-122.006-78.248-146.51-213.927-143.64-241.785c93.873-15.939,225.093-13.784,405.526,98.128
			c-39.536-8.407-172.994-106.633-386.613-88.671C-3743.937,1584.064-3687.737,1725.131-3563.818,1710.149z"/>
		<path id="path71427" fill="#C3BDC9" d="M-3723.441,1522.767l216.357,157.836c27.979,1.43,55.964,0.676,83.954,14.179
			c1.539-5.575,4.189-12.761,8.874-23.058C-3533.596,1622.061-3620.98,1572.425-3723.441,1522.767z"/>
		<path id="path72398" fill="#DFDDE2" d="M-4211.876,1018.794l57.674,34.269c-7.483,130.869,224.576,385.332,483.218,405.443
			c-42.28,4.327-89.205,3.216-122.913,17.566c-122.143-75.674-204.514-156.28-272.519-226.544
			c-14.339,2.128-25.483-33.669-49.322-22.575C-4181.467,1142.01-4207.5,1075.402-4211.876,1018.794z"/>
		<path id="path73369" fill="#C4BECA" d="M-3834.852,1119.946c-86.45-33.538-164.956-71.99-315.155-66.058
			c233.087,168.992,360.36,275.482,531.699,407.961c78.225,11.754,153.757,46.507,229.887,76.081
			c-9.797-20.903-17.506-41.785-21.734-62.688c1.232,17.555,0.863,35.11,11.694,52.676
			c-101.779-29.293-520.489-327.058-725.646-459.812C-4046.799,1043.783-3937.494,1089.081-3834.852,1119.946z"/>
		<path id="path74340" fill="#DFDDE2" d="M-3715.298,1128.292c-94.054-81.684-198.576-174.605-222.382-305.138
			c109.723,13.036,323.93,86.967,489.908,206.504c-154.598-88.688-300.525-155.153-419.672-153.003
			C-3877.269,984.762-3777.766,1055.966-3715.298,1128.292z"/>
		<path id="path75311" fill="#C3BDC9" d="M-3859.928,880.003l-5.02,4.195c158.705,117.189,273.629,228.908,398.774,341.903
			c35.429,29.733,30.393,61.753,34.291,93.636c12.909-15.059-3.975-66.405,23.531-71.76c25.923-4.959,125.228,46.469,131.121,38.326
			C-3511.389,1182.508-3667.169,1016.694-3859.928,880.003z"/>
		<path id="path76282" fill="#E0DEE4" d="M-3361.674,1507.01c-22.459-36.127-57.096-147.538-34.269-222.388
			c301.328,65.118,351.931,302.18,356.962,349.446c-44.418-171.845-208.313-327.806-321.027-307.634
			c68.967,63.408,153.113,193.447,205.663,249.119c-24.906,1.265-49.839,2.496-66.036,9.209
			c-42.252-4.706-61.775,3.75-83.602,10.864c-23.268-26.94-31.712-47.283-45.98-70.226c30.47,43,74.536,36.458,120.389,23.399
			c-46.26-84.328-92.514-145.02-138.791-216.521C-3391.236,1349.504-3369.596,1439.445-3361.674,1507.01z"/>
		<path id="path77253" fill="#DFDDE2" d="M-3240.438,1185.988c512.599,340.182,551.316,899.332,188.916,807.565
			C-2616.791,1941.323-3126.344,1295.558-3240.438,1185.988z"/>
		<path id="path78224" fill="#C3BDC9" d="M-3216.813,1586.599c42.137-17.648,155.181-15.702,160.189,158.424l-37.232,27.787
			C-3093.103,1725.131-3085.527,1617.558-3216.813,1586.599z"/>
		<path id="path79195" fill="#C3BDC9" d="M-3093.856,1775.768l39.019-28.364c186.558,70.979,95.044,272.59-34.879,240.586
			C-2934.536,1972.117-2968.013,1774.289-3093.856,1775.768z"/>
		<path id="path2573" fill="#DFA12F" d="M-2492.272,468.381c25.368,44.253-45.067,177.062,76.235,157.094
			c41.142,25.884,78.005,11.843,96.473,11.958c80.496-28.007,78.143-83.454,83.245-98.315c-69.83-98.172,8.439-116.903,16.983-123.1
			c43.181,5.239,65.36,84.85,7.356,110.24c4.607,3.678,11.645,3.068,21.146-1.82c-0.858,127.521,89.749,136.394,152.415,115.749
			c123.605,33.812,63.645-109.261,122.132-215.895c-66.394,116.854-23.619,223.097-120.295,209.462
			c24.84-60.324-40.806-107.337-8.269-172.73c-50.351,43.17,33.307,122.962,0,164.45c-34.065,29.903-67.13,5.025-67.878-8.252
			c-13.965-43.275,84.801-95.863,25.687-175.485c20.266,43.115,13.272,62.501,2.397,89.903
			c-10.831,27.413-52.682,52.253-33.604,106.705c-43.346-8.56-65.822-59.983-53.825-100.547
			c11.854-39.981,32.142-107.019-43.588-128.68c-95.648,28.727-46.936,104.39-35.391,117.871
			c23.449,25.406-19.6,102.13-73.552,101.702c24.68-37.65-4.58-45.254-40.877-105.176c-2.683,31.844,72.43,74.882,29.392,100.124
			c-22.042,17.632-53.292,7.263-66.163-5.493c-24.329-27.677,34.214-59.933,23.427-113.016
			c-15.697,77.846-38.31,73.206-35.363,110.256c-28.161,8.016-57.575,18.182-66.718-35.578
			C-2480.32,505.97-2481.782,460.618-2492.272,468.381z"/>
		<path id="path3544" fill="#DFA12F" d="M-1995.293,769.269l1.364,7.818c-148.061,9.556-299.09-18.814-444.605-22.063v-6.878
			C-2291.261,751.769-2174.803,777.615-1995.293,769.269z"/>
		<path id="path4515" fill="#DFA12F" d="M-2223.459,794.532l-0.473,5.971c85.153,13.294,170.328,26.77,241.032,19.749v-6.416
			C-2068.131,824.463-2145.113,807.331-2223.459,794.532z"/>
		<path id="path5495" fill="#E1A02F" d="M-2427.05,672.345c-23.515,7.521-12.442,41.988-0.462,41.807
			c27.11,1.342,54.205,5.196,81.304,0.924c15.395-7.252,20.447-34.434,3.216-45.49
			C-2371.482,666.094-2399.769,666.11-2427.05,672.345z M-2432.097,667.743c46.76-8.967,89.425-3.216,113.457,1.385
			c21.58,5.734,21.651,43.258,0,50.994c-24.472,2.243-77.071,1.693-113.005-1.375C-2455.266,699.164-2443,675.484-2432.097,667.743z
			"/>
		<path id="path6471" fill="#E1A02F" d="M-2263.886,709.555c61.055,8,112.692,12.755,99.706-34.912
			C-2181.598,674.863-2299.194,648.511-2263.886,709.555z M-2265.728,715.993c-8.269-8.681-19.683-27.413,2.766-50.543
			c34.104-2.414,68.961-0.33,104.28,4.597c32.471,13.42,29.568,42.318,2.76,54.661
			C-2213.222,724.653-2243.742,720.897-2265.728,715.993z"/>
		<path id="path7447" fill="#E1A02F" d="M-2099.019,718.357c60.082,12.942,110.63,24.164,101.559-24.395
			C-2014.8,692.764-2129.202,654.658-2099.019,718.357z M-2101.382,724.625c-7.532-9.319-17.363-28.936,6.839-50.152
			c86.263,4.47,71.782,5.52,103.406,13.052c31.261,16.016,26.016,44.588-1.693,54.721
			C-2067.691,743.824-2080.611,731.558-2101.382,724.625z"/>
		<path id="path5028" fill="#C3BDC9" d="M-3196.707,1668.002l-95.945,282.679c26.709-0.495,49.548,1.358,95.945-8.258
			C-3153.366,1853.427-3144.41,1727.358-3196.707,1668.002z"/>
		<path id="path6005" fill="#FFFFFF" d="M-3119.378,2219.273l-173.351-267.933c-4.222-5.608-43.72,111.032-49.174,147.049
			C-3320.565,2157.124-3218.231,2217.811-3119.378,2219.273z"/>
		<path id="path6978" fill="#C3BDC9" d="M-3147.78,2011.807c60.703-21.761,72.419-58.389,73.25-80.392l-122.011,10.842
			C-3179.218,1964.062-3161.498,1986.665-3147.78,2011.807z"/>
		<path id="path6980" fill="#C3BDC9" d="M-3350.145,1808.915c-24.526-16.269-104.104-21.992-120.758-7.554l101.894,94.153
			C-3364.912,1867.963-3359.172,1836.103-3350.145,1808.915z"/>
		<path id="path6984" fill="#C3BDC9" d="M-3580.273,2099.214l285.725-147.225c6.471-2.76-34.23,112.83-47.525,146.752
			C-3376.029,2116.208-3517.707,2150.01-3580.273,2099.214z"/>
	</g>
</g>
</svg>
