<?xml version="1.0" encoding="utf-8"?>
<!-- Generator: Adobe Illustrator 15.0.2, SVG Export Plug-In . SVG Version: 6.00 Build 0)  -->
<!DOCTYPE svg PUBLIC "-//W3C//DTD SVG 1.1//EN" "http://www.w3.org/Graphics/SVG/1.1/DTD/svg11.dtd">
<svg version="1.1" id="Layer_1" xmlns="http://www.w3.org/2000/svg" xmlns:xlink="http://www.w3.org/1999/xlink" x="0px" y="0px"
	 width="350px" height="349.997px" viewBox="0 0 350 349.997" enable-background="new 0 0 350 349.997" xml:space="preserve">
<g>
	<path fill="#FFE781" d="M342.09,226.881c-28.654,92.283-126.692,143.863-218.975,115.21S-20.748,215.399,7.906,123.117
		S134.599-20.747,226.881,7.907c92.115,28.603,143.708,126.359,115.341,218.548"/>
	<path fill="#332869" d="M340,174.999c0.016,91.127-73.845,165.013-164.972,165.028S10.016,266.182,10,175.056
		c0-0.019,0-0.038,0-0.057C9.984,83.872,83.845,9.986,174.972,9.97S339.984,83.814,340,174.941C340,174.96,340,174.979,340,174.999z
		"/>
	<path fill="#FFFFFF" d="M269.525,204.35c-16.208,52.205-71.669,81.388-123.875,65.18c-52.206-16.209-81.388-71.67-65.18-123.875
		c16.208-52.206,71.669-81.388,123.875-65.18c52.111,16.179,81.3,71.48,65.254,123.633"/>
	<path fill="#E5251D" d="M206.508,184.782c-5.402,17.402-23.89,27.13-41.291,21.727c-17.402-5.402-27.13-23.89-21.727-41.292
		c5.402-17.402,23.89-27.129,41.292-21.726c17.37,5.393,27.1,23.827,21.751,41.211"/>
</g>
<rect fill="none" width="350" height="349.997"/>
</svg>
