<?xml version="1.0" encoding="utf-8"?>
<!-- Generator: Adobe Illustrator 15.0.2, SVG Export Plug-In . SVG Version: 6.00 Build 0)  -->
<!DOCTYPE svg PUBLIC "-//W3C//DTD SVG 1.1//EN" "http://www.w3.org/Graphics/SVG/1.1/DTD/svg11.dtd">
<svg version="1.1" id="Layer_1" xmlns="http://www.w3.org/2000/svg" xmlns:xlink="http://www.w3.org/1999/xlink" x="0px" y="0px"
	 width="600px" height="600px" viewBox="0 0 600 600" enable-background="new 0 0 600 600" xml:space="preserve">
<g>
	<path fill="#2A2A66" d="M598.891,300.555c0.024,164.767-133.524,298.356-298.291,298.382
		C135.833,598.961,2.243,465.412,2.218,300.645c0-0.029,0-0.06,0-0.09C2.192,135.788,135.742,2.198,300.509,2.173
		s298.356,133.524,298.382,298.291C598.891,300.494,598.891,300.524,598.891,300.555z"/>
	<polygon fill="#FFFFFF" points="460.868,531.063 302.89,410.415 142.391,530.627 203.274,336.193 44.372,213.683 239.979,214.165 
		302.271,18.237 362.279,212.969 559.681,214.389 401.16,334.258 	"/>
	<circle fill="#E41913" cx="300.554" cy="299.445" r="70.979"/>
</g>
<rect fill="none" width="600" height="600"/>
</svg>
