<?xml version="1.0" encoding="utf-8"?>
<!-- Generator: Adobe Illustrator 15.0.2, SVG Export Plug-In . SVG Version: 6.00 Build 0)  -->
<!DOCTYPE svg PUBLIC "-//W3C//DTD SVG 1.1//EN" "http://www.w3.org/Graphics/SVG/1.1/DTD/svg11.dtd">
<svg version="1.1" xmlns="http://www.w3.org/2000/svg" xmlns:xlink="http://www.w3.org/1999/xlink" x="0px" y="0px"
	 width="599.998px" height="600.17px" viewBox="0 0 599.998 600.17" enable-background="new 0 0 599.998 600.17"
	 xml:space="preserve">
<g id="Layer_3">
	<circle fill="#1D1D1B" cx="299.999" cy="297.165" r="299.999"/>
</g>
<g id="Layer_4">
	<polygon fill="#D81E05" points="364.566,210.448 561.043,210.448 402.506,325.62 463.482,513.967 303.591,397.436 143.683,513.967 
		204.658,325.62 45.715,210.448 242.599,210.448 303.591,23.455 	"/>
</g>
<g id="Layer_6">
	<path fill="#D81E05" stroke="#FCE900" stroke-width="20" stroke-miterlimit="10" d="M458.046,297.513
		c0,87.589-70.998,158.586-158.58,158.586c-87.575,0-158.572-70.997-158.572-158.586c0-87.591,70.998-158.588,158.572-158.588
		C387.048,138.926,458.046,209.923,458.046,297.513z"/>
</g>
<g id="Layer_5">
	<path fill="#FCE900" d="M239.798,333.315c2.677-1.781,5.904-5.408,9.84-4.199c147.691,55.11,139.269-114.986,27.239-149.605l0,0
		c181.308,34.747,114.313,259.062-25.428,159.34l-2.047-1.4l-2.441,1.91c5.59,4.709-1.811,11.965-8.423,8.336
		c-1.732-0.317-3.542,0.573-6.062,6.109c-3.071,6.746-8.346,13.683-16.06,14.001c-7.715,0.254-11.809-3.755-11.258-9.29
		c0.551-5.537,10.47-11.01,18.579-13.748c6.771-2.29,6.456-2.863,6.142-4.136c-6.535-5.473,2.598-13.363,9.918-7.19V333.315z"/>
	<path fill="#FCE900" d="M262.4,223.415c8.187,0.472,16.375-1.181,23.853-3.858l12.044,12.438l-52.43,50.695l-21.413-22.432
		l37.866-36.843l0,0H262.4z"/>
	<path fill="#FCE900" d="M262.714,261.754L376.24,382.666c10.077,10.786,26.688-5.51,15.745-16.374L273.972,251.205l-11.258,10.47
		V261.754z"/>
</g>
</svg>
