<?xml version="1.0" encoding="utf-8"?>
<!-- Generator: Adobe Illustrator 15.0.2, SVG Export Plug-In . SVG Version: 6.00 Build 0)  -->
<!DOCTYPE svg PUBLIC "-//W3C//DTD SVG 1.1//EN" "http://www.w3.org/Graphics/SVG/1.1/DTD/svg11.dtd">
<svg version="1.1" id="Layer_1" xmlns="http://www.w3.org/2000/svg" xmlns:xlink="http://www.w3.org/1999/xlink" x="0px" y="0px"
	 width="265.268px" height="252px" viewBox="0 0 265.268 252" enable-background="new 0 0 265.268 252" xml:space="preserve">
<polygon fill="#FFFFFF" points="130.268,122 163.268,252 245.268,192 "/>
<path fill="#FFFFFF" d="M234.189,186c-1.479-1.677-28-32,3-39s28-28,28-28s-19,13-37-7s-19-56-19-56l25-9l-56-47c0,0-12,66-13,68
	s27-7,27-7s15,50,9,62s-69,0-69,0"/>
<path fill="#FFFFFF" d="M160.268,240.299c-1.149-1.918-22.005-36.384-38.074-8.964c-16.069,27.418-35.171,18.192-35.171,18.192
	s18.149-14.164,4.547-37.381c-13.602-23.217-47.604-35.084-47.604-35.084L27.81,198.158L0,130.545c0,0,66.531,8.574,68.741,8.227
	c2.209-0.347-14.856,23.607-14.856,23.607s43.1,29.453,56.354,27.373S131.158,124,131.158,124"/>
</svg>
