<?xml version="1.0" encoding="utf-8"?>
<!-- Generator: Adobe Illustrator 15.0.2, SVG Export Plug-In . SVG Version: 6.00 Build 0)  -->
<!DOCTYPE svg PUBLIC "-//W3C//DTD SVG 1.1//EN" "http://www.w3.org/Graphics/SVG/1.1/DTD/svg11.dtd">
<svg version="1.1" id="Layer_1" xmlns="http://www.w3.org/2000/svg" xmlns:xlink="http://www.w3.org/1999/xlink" x="0px" y="0px"
	 width="16.343px" height="16.457px" viewBox="0 0 16.343 16.457" enable-background="new 0 0 16.343 16.457" xml:space="preserve">
<path fill="#FFFFFF" d="M16.314,6.509c-0.273-2.062-0.943-2.828-1.572-3.143c-1.037-0.519-1.334,1.18-1.885,2.514
	c-0.495,1.196-1.115,1.014-2.03,1.639c0.073,0.254,0.125,0.518,0.125,0.796c0,0.832-0.356,1.576-0.918,2.103
	c0.159,0.638,0.387,1.119,0.387,1.119c1.101,1.65,3.065,0.943,4.321-0.312C16,9.966,16.471,7.688,16.314,6.509z"/>
<path fill="#FFFFFF" d="M10.887,1.601C9.629,0.343,7.35-0.127,6.172,0.029C4.11,0.302,3.344,0.972,3.03,1.601
	c-0.52,1.037,1.18,1.333,2.514,1.885c1.218,0.503,1.01,1.137,1.675,2.079c0.269-0.083,0.548-0.14,0.844-0.14
	c0.81,0,1.54,0.335,2.064,0.872C10.741,6.139,11.2,5.922,11.2,5.922C12.85,4.822,12.143,2.857,10.887,1.601z"/>
<path fill="#FFFFFF" d="M10.655,12.971c-1.166-0.481-1.016-1.08-1.584-1.957c-0.315,0.118-0.653,0.191-1.009,0.191
	c-0.868,0-1.638-0.391-2.168-0.998C5.37,10.358,5,10.536,5,10.536c-1.65,1.1-0.943,3.064,0.312,4.32
	c1.258,1.258,3.537,1.729,4.714,1.572c2.062-0.273,2.827-0.943,3.142-1.572C13.688,13.819,11.988,13.523,10.655,12.971z"/>
<path fill="#FFFFFF" d="M6.256,6.075C6.104,5.539,5.922,5.156,5.922,5.156c-1.101-1.65-3.065-0.943-4.321,0.312
	c-1.258,1.258-1.729,3.538-1.572,4.713c0.273,2.062,0.943,2.828,1.572,3.143c1.037,0.52,1.333-1.18,1.885-2.514
	C3.95,9.688,4.525,9.779,5.35,9.281C5.241,8.978,5.172,8.656,5.172,8.315C5.172,7.406,5.6,6.605,6.256,6.075z"/>
<circle fill="#FFFFFF" cx="8.062" cy="8.315" r="2.671"/>
</svg>
