<?xml version="1.0" encoding="utf-8"?>
<!-- Generator: Adobe Illustrator 15.0.2, SVG Export Plug-In . SVG Version: 6.00 Build 0)  -->
<!DOCTYPE svg PUBLIC "-//W3C//DTD SVG 1.1//EN" "http://www.w3.org/Graphics/SVG/1.1/DTD/svg11.dtd">
<svg version="1.1" id="Layer_1" xmlns="http://www.w3.org/2000/svg" xmlns:xlink="http://www.w3.org/1999/xlink" x="0px" y="0px"
	 width="27.133px" height="27.179px" viewBox="0 0 27.133 27.179" enable-background="new 0 0 27.133 27.179" xml:space="preserve">
<path fill="#FFFFFF" stroke="#FFFFFF" d="M7.261,7.285c0.267-0.254,2.028-0.259,3.82,1.958c1.18,0.802,1.935-0.048,1.935-0.048
	s7.831-7.264,8.774-8.065s2.404-1.792,3.018-0.519s0.473,1.65,0.236,2.169c-0.236,0.52-8.113,9.246-8.113,9.246
	s-0.801,0.849-0.094,2.452s4.764,5.99,4.764,5.99l4.293-2.311c0,0,1.557-0.756,1.18,0.99c-0.379,1.746-3.02,3.727-3.02,3.727
	c0.746,0.848,0.055,1.51,0.141,1.416c-0.613,0.566-1.32-0.189-1.32-0.189s-1.98,2.641-3.727,3.02c-1.746,0.377-0.99-1.18-0.99-1.18
	l2.311-4.293c0,0-4.67-4.104-6.273-4.811c-1.604-0.707-2.17,0.141-2.17,0.141s-8.727,7.877-9.246,8.113s-0.896,0.377-2.169-0.236
	s-0.283-2.074,0.519-3.018s8.066-8.774,8.066-8.774s0.849-0.755,0.047-1.934C7.025,9.336,6.979,7.521,7.261,7.285"/>
<line fill="#FFFFFF" stroke="#FFFFFF" x1="5.516" y1="10.468" x2="10.374" y2="5.563"/>
</svg>
