<?xml version="1.0" encoding="utf-8"?>
<!-- Generator: Adobe Illustrator 15.0.2, SVG Export Plug-In . SVG Version: 6.00 Build 0)  -->
<!DOCTYPE svg PUBLIC "-//W3C//DTD SVG 1.1//EN" "http://www.w3.org/Graphics/SVG/1.1/DTD/svg11.dtd">
<svg version="1.1" id="Layer_1" xmlns="http://www.w3.org/2000/svg" xmlns:xlink="http://www.w3.org/1999/xlink" x="0px" y="0px"
	 width="27.456px" height="27.361px" viewBox="0 0 27.456 27.361" enable-background="new 0 0 27.456 27.361" xml:space="preserve">
<path fill="#FFFFFF" d="M7.584,7.467c0.267-0.254,2.028-0.259,3.82,1.958c1.18,0.802,1.935-0.048,1.935-0.048
	s7.831-7.264,8.774-8.065s2.404-1.792,3.018-0.519s0.473,1.65,0.236,2.169c-0.236,0.52-8.113,9.246-8.113,9.246
	s-0.801,0.849-0.094,2.452s4.764,5.99,4.764,5.99l4.293-2.311c0,0,1.557-0.756,1.18,0.99c-0.379,1.746-3.02,3.727-3.02,3.727
	c0.746,0.848,0.055,1.51,0.141,1.416c-0.613,0.566-1.32-0.189-1.32-0.189s-1.98,2.641-3.727,3.02c-1.746,0.377-0.99-1.18-0.99-1.18
	l2.311-4.293c0,0-4.67-4.104-6.273-4.811c-1.604-0.707-2.17,0.141-2.17,0.141s-8.727,7.877-9.246,8.113s-0.896,0.377-2.169-0.236
	s-0.283-2.074,0.519-3.018s8.066-8.774,8.066-8.774s0.849-0.755,0.047-1.934C7.348,9.519,7.301,7.703,7.584,7.467"/>
<line fill="none" stroke="#FFFFFF" stroke-width="0.5" stroke-linecap="round" x1="5.838" y1="10.65" x2="10.697" y2="5.745"/>
<circle fill="none" stroke="#FFFFFF" cx="12.363" cy="12.363" r="11.863"/>
<line fill="none" stroke="#FFFFFF" x1="0.641" y1="12.387" x2="4.603" y2="12.434"/>
<line fill="none" stroke="#FFFFFF" x1="12.48" y1="0.5" x2="12.48" y2="3.66"/>
<line fill="none" stroke="#FFFFFF" x1="24.367" y1="12.575" x2="20.782" y2="12.575"/>
<line fill="none" stroke="#FFFFFF" x1="12.528" y1="24.321" x2="12.528" y2="20.216"/>
</svg>
