<?xml version="1.0" encoding="utf-8"?>
<!-- Generator: Adobe Illustrator 15.0.2, SVG Export Plug-In . SVG Version: 6.00 Build 0)  -->
<!DOCTYPE svg PUBLIC "-//W3C//DTD SVG 1.1//EN" "http://www.w3.org/Graphics/SVG/1.1/DTD/svg11.dtd">
<svg version="1.1" id="Layer_1" xmlns="http://www.w3.org/2000/svg" xmlns:xlink="http://www.w3.org/1999/xlink" x="0px" y="0px"
	 width="23.919px" height="27.595px" viewBox="0 0 23.919 27.595" enable-background="new 0 0 23.919 27.595" xml:space="preserve">
<path fill="#FFFFFF" d="M10.41,3.925L13.277,0l3.132,2.906l-0.302,2.868l0,0l4-4.831c0,0,0.717-0.641,1.396-0.113
	C21.975,1.196,21.58,2,21.58,2s-3.963,5.208-3.736,4.943c0.28-0.327,2.68-0.566,2.68-0.566l3.396,2
	c-0.566,0.528-3.095,2.755-3.095,2.755l-4.227,0.188c0,0,0.114,0.377-0.377,2.943c-0.491,2.567-7.925,11.094-9.472,12.454
	c-1.547,1.357-3.887,1.018-5.472-0.189s-1.584-4.113-0.604-5.811c0.981-1.699,5.962-9.095,7.434-11.057s4.151-2.188,4.151-2.188
	C10.393,4.024,10.438,4.01,10.41,3.925z"/>
<path d="M3.084,26.283c-0.129,0.226-0.507,0.252-0.844,0.062s-0.505-0.527-0.376-0.752c0.129-0.226,0.506-0.253,0.844-0.062
	C3.045,25.722,3.213,26.059,3.084,26.283z"/>
</svg>
