<?xml version="1.0" encoding="utf-8"?>
<!-- Generator: Adobe Illustrator 15.0.2, SVG Export Plug-In . SVG Version: 6.00 Build 0)  -->
<!DOCTYPE svg PUBLIC "-//W3C//DTD SVG 1.1//EN" "http://www.w3.org/Graphics/SVG/1.1/DTD/svg11.dtd">
<svg version="1.1" id="Layer_1" xmlns="http://www.w3.org/2000/svg" xmlns:xlink="http://www.w3.org/1999/xlink" x="0px" y="0px"
	 width="20.604px" height="29.947px" viewBox="0 0 20.604 29.947" enable-background="new 0 0 20.604 29.947" xml:space="preserve">
<path fill="#FFFFFF" d="M10.403,7.606c1.822,2.25,8.544,11.029,9.57,12.213c2.536,2.928-2.964,11.998-9.534,9.784
	c-5.213-7.106-6.927-9.142-9.999-12.891C-1.345,13.069,2.369,4.999,10.403,7.606z"/>
<circle fill="#FFFFFF" cx="15.777" cy="8.052" r="1.589"/>
<ellipse fill="#FFFFFF" cx="17.706" cy="3.981" rx="0.982" ry="0.625"/>
<ellipse fill="#FFFFFF" cx="15.634" cy="0.857" rx="0.875" ry="0.857"/>
<ellipse transform="matrix(0.7424 -0.6699 0.6699 0.7424 -12.4702 16.3222)" fill="#1D1719" cx="14.992" cy="24.378" rx="5.797" ry="3.081"/>
<ellipse transform="matrix(0.7328 -0.6804 0.6804 0.7328 -12.5665 16.8169)" fill="#FFFFFF" cx="15.129" cy="24.409" rx="3.749" ry="1.615"/>
</svg>
