<?xml version="1.0" encoding="utf-8"?>
<!-- Generator: Adobe Illustrator 15.0.2, SVG Export Plug-In . SVG Version: 6.00 Build 0)  -->
<!DOCTYPE svg PUBLIC "-//W3C//DTD SVG 1.1//EN" "http://www.w3.org/Graphics/SVG/1.1/DTD/svg11.dtd">
<svg version="1.1" id="Layer_1" xmlns="http://www.w3.org/2000/svg" xmlns:xlink="http://www.w3.org/1999/xlink" x="0px" y="0px"
	 width="43.45px" height="11.406px" viewBox="0 0 43.45 11.406" enable-background="new 0 0 43.45 11.406" xml:space="preserve">
<path fill="#FFFFFF" d="M4.225,6.042c-2.38-0.017-3.277,0.02-3.851-0.447S0.051,3.372,0.079,0.46c1.048,0.006,1.98-0.03,1.98-0.03
	L2.095,3.91l2.05-0.021L4.175,0l19.261,0.036l0.005,2.737c0,0,12.395-0.047,17.498-0.047c0.638,0,2.361,0.06,2.436,1.243
	c0.08,1.276,0.075,1.499,0.075,2.057c0,1.333-2.21,1.363-1.9,1.363c0.878,0-13.803,0.009-17.949,0.009
	c0.016,1.533-0.021,4.009-0.021,4.009H4.211C4.211,11.406,4.283,7.819,4.225,6.042z"/>
<ellipse fill="#1D1719" cx="25.229" cy="4.232" rx="0.825" ry="0.789"/>
<ellipse fill="#1D1719" cx="26.503" cy="5.942" rx="0.825" ry="0.79"/>
<ellipse fill="#1D1719" cx="27.516" cy="4.233" rx="0.825" ry="0.789"/>
<ellipse fill="#1D1719" cx="28.791" cy="5.943" rx="0.825" ry="0.789"/>
<ellipse fill="#1D1719" cx="29.731" cy="4.219" rx="0.825" ry="0.789"/>
<ellipse fill="#1D1719" cx="31.005" cy="5.929" rx="0.825" ry="0.789"/>
<ellipse fill="#1D1719" cx="31.955" cy="4.148" rx="0.825" ry="0.789"/>
<ellipse fill="#1D1719" cx="33.229" cy="5.858" rx="0.825" ry="0.789"/>
<ellipse fill="#1D1719" cx="34.25" cy="4.184" rx="0.825" ry="0.789"/>
<ellipse fill="#1D1719" cx="35.525" cy="5.894" rx="0.825" ry="0.789"/>
<ellipse fill="#1D1719" cx="36.546" cy="4.184" rx="0.825" ry="0.789"/>
<ellipse fill="#1D1719" cx="37.821" cy="5.894" rx="0.825" ry="0.789"/>
<ellipse fill="#1D1719" cx="38.915" cy="4.184" rx="0.825" ry="0.789"/>
<ellipse fill="#1D1719" cx="40.189" cy="5.894" rx="0.825" ry="0.789"/>
<ellipse fill="#1D1719" cx="41.245" cy="4.184" rx="0.825" ry="0.789"/>
<ellipse fill="#1D1719" cx="24.227" cy="6.001" rx="0.825" ry="0.789"/>
<g>
	<path d="M14.84,2.164h2.164v7.197h-1.401V4.493c0-0.14,0.001-0.336,0.005-0.588s0.005-0.447,0.005-0.583l-1.364,6.04h-1.462
		l-1.354-6.04c0,0.137,0.001,0.331,0.005,0.583s0.005,0.448,0.005,0.588v4.868h-1.401V2.164h2.188l1.31,5.659L14.84,2.164z"/>
</g>
</svg>
