<?xml version="1.0" encoding="utf-8"?>
<!-- Generator: Adobe Illustrator 15.0.2, SVG Export Plug-In . SVG Version: 6.00 Build 0)  -->
<!DOCTYPE svg PUBLIC "-//W3C//DTD SVG 1.1//EN" "http://www.w3.org/Graphics/SVG/1.1/DTD/svg11.dtd">
<svg version="1.1" id="Layer_1" xmlns="http://www.w3.org/2000/svg" xmlns:xlink="http://www.w3.org/1999/xlink" x="0px" y="0px"
	 width="46.335px" height="20.965px" viewBox="0 0 46.335 20.965" enable-background="new 0 0 46.335 20.965" xml:space="preserve">
<path fill="#FFFFFF" d="M4.169,17.148L0,17.089L0.176,6.107l17.03-0.293c0,0,9.318,4.646,9.866,7.164
	c0.294,1.351-0.002,3.996,0,3.993h-3.935l-0.059,3.936L4.052,20.965L4.169,17.148z"/>
<path fill="#FFFFFF" d="M26.309,12.744c0,0-2.29-6.636-6.166-5.579c-6.019,1.642,5.813,5.402,5.813,5.402l-1.174-2.349l21.553-8.221
	L45.455,0L23.197,8.397"/>
<g>
	<path fill="#1D1719" d="M14.219,8.511h2.597v8.637h-1.682v-5.842c0-0.168,0.002-0.403,0.006-0.706s0.006-0.536,0.006-0.7
		l-1.637,7.248h-1.754L10.13,9.9c0,0.164,0.002,0.397,0.006,0.7s0.006,0.538,0.006,0.706v5.842H8.46V8.511h2.626l1.572,6.791
		L14.219,8.511z"/>
</g>
</svg>
