<?xml version="1.0" encoding="utf-8"?>
<!-- Generator: Adobe Illustrator 15.0.2, SVG Export Plug-In . SVG Version: 6.00 Build 0)  -->
<!DOCTYPE svg PUBLIC "-//W3C//DTD SVG 1.1//EN" "http://www.w3.org/Graphics/SVG/1.1/DTD/svg11.dtd">
<svg version="1.1" id="Layer_1" xmlns="http://www.w3.org/2000/svg" xmlns:xlink="http://www.w3.org/1999/xlink" x="0px" y="0px"
	 width="28.056px" height="15.008px" viewBox="0 0 28.056 15.008" enable-background="new 0 0 28.056 15.008" xml:space="preserve">
<path fill="#FFFFFF" d="M0,10.999V1.116l13.869-0.026l3.056,5.047v4.889c0,0-2.95-0.025-2.976,0.054s0.08,3.853,0.027,3.905
	s-11.956,0-11.956,0l-0.053-3.933L0,10.999z"/>
<path fill="#FFFFFF" d="M14.134,1.993c0,0,3.614,0.478,3.561,0.558s0.451,0.452,0.451,0.452L27.71,0l0.346,0.717l-9.432,3.188
	l-2.046,2.046"/>
<g>
	<g>
		<path fill="#1D1719" d="M5.311,9.249C5.549,8.683,6.111,8.083,6.998,7.45c0.77-0.551,1.268-0.945,1.494-1.184
			C8.84,5.896,9.014,5.489,9.014,5.048c0-0.359-0.1-0.658-0.299-0.896S8.23,3.794,7.859,3.794c-0.508,0-0.854,0.189-1.037,0.568
			C6.717,4.581,6.654,4.929,6.635,5.405H5.012C5.039,4.683,5.17,4.099,5.405,3.653C5.851,2.806,6.642,2.382,7.78,2.382
			c0.899,0,1.615,0.249,2.146,0.747s0.798,1.157,0.798,1.978c0,0.629-0.188,1.188-0.563,1.676C9.915,7.106,9.509,7.468,8.946,7.866
			L8.276,8.341C7.858,8.638,7.571,8.853,7.417,8.985s-0.284,0.287-0.39,0.463h3.709v1.471H4.918
			C4.934,10.31,5.064,9.753,5.311,9.249z"/>
	</g>
</g>
</svg>
