<?xml version="1.0" encoding="utf-8"?>
<!-- Generator: Adobe Illustrator 15.0.2, SVG Export Plug-In . SVG Version: 6.00 Build 0)  -->
<!DOCTYPE svg PUBLIC "-//W3C//DTD SVG 1.1//EN" "http://www.w3.org/Graphics/SVG/1.1/DTD/svg11.dtd">
<svg version="1.1" id="Layer_1" xmlns="http://www.w3.org/2000/svg" xmlns:xlink="http://www.w3.org/1999/xlink" x="0px" y="0px"
	 width="23.185px" height="14.675px" viewBox="0 0 23.185 14.675" enable-background="new 0 0 23.185 14.675" xml:space="preserve">
<path fill="#FFFFFF" d="M2.044,10.954c-0.022-0.03-0.046-0.066,0-0.053"/>
<path fill="#FFFFFF" d="M0,10.849L0.052,0.838H13.05l0.21,0.943h4.769L22.484,0c0,0,0.839,1.363,0.682,1.415
	s-5.084,2.411-5.084,2.411L16.299,5.66l-0.052,5.189h-1.992l-0.052,3.773L1.153,14.675v-3.774L0,10.849z"/>
<g>
	<path d="M5.728,10.469C5.28,9.924,5.057,9.261,5.057,8.48h1.102c0.047,0.543,0.148,0.938,0.305,1.184
		c0.273,0.441,0.768,0.662,1.482,0.662c0.555,0,1-0.148,1.336-0.445s0.504-0.68,0.504-1.148c0-0.578-0.177-0.982-0.53-1.213
		S8.41,7.173,7.781,7.173c-0.07,0-0.142,0.001-0.214,0.003s-0.146,0.005-0.22,0.009V6.253c0.109,0.012,0.201,0.02,0.275,0.023
		s0.154,0.006,0.24,0.006c0.395,0,0.719-0.062,0.973-0.188c0.445-0.219,0.668-0.609,0.668-1.172c0-0.418-0.148-0.74-0.445-0.967
		s-0.643-0.34-1.037-0.34c-0.703,0-1.189,0.234-1.459,0.703C6.414,4.578,6.33,4.945,6.311,5.421H5.268
		c0-0.625,0.125-1.156,0.375-1.594c0.43-0.781,1.186-1.172,2.268-1.172c0.855,0,1.518,0.19,1.986,0.571S10.6,4.16,10.6,4.882
		c0,0.516-0.139,0.934-0.416,1.254c-0.172,0.199-0.395,0.355-0.668,0.469c0.441,0.121,0.786,0.354,1.034,0.7
		s0.372,0.769,0.372,1.269c0,0.801-0.264,1.453-0.791,1.957s-1.275,0.756-2.244,0.756C6.895,11.287,6.175,11.014,5.728,10.469z"/>
</g>
</svg>
