<?xml version="1.0" encoding="utf-8"?>
<!-- Generator: Adobe Illustrator 15.0.2, SVG Export Plug-In . SVG Version: 6.00 Build 0)  -->
<!DOCTYPE svg PUBLIC "-//W3C//DTD SVG 1.1//EN" "http://www.w3.org/Graphics/SVG/1.1/DTD/svg11.dtd">
<svg version="1.1" id="Layer_1" xmlns="http://www.w3.org/2000/svg" xmlns:xlink="http://www.w3.org/1999/xlink" x="0px" y="0px"
	 width="33.08px" height="16.6px" viewBox="0 0 33.08 16.6" enable-background="new 0 0 33.08 16.6" xml:space="preserve">
<path fill="#FFFFFF" d="M11.491,8.156l12.984-7.847c0,0,5.936-2.111,8.166,4.7c2.23,6.812-4.781,8.005-4.82,8.245
	c-0.039,0.238-16.171-0.238-16.171-0.238L10.535,16.6l-0.717-2.947l-1.155-0.398L8.305,8.793l0.717-0.399L8.503,4.69L11.491,8.156
	L11.491,8.156z"/>
<path fill="none" stroke="#FFFFFF" stroke-linecap="round" d="M7.269,8.792c-1.792,0.956-0.937,4.728,0.398,5.099"/>
<path fill="none" stroke="#FFFFFF" stroke-linecap="round" d="M5.118,9.191c-1.036,0.279-1.128,2.242-1.075,2.908
	c0.08,0.995,0.478,1.872,1.752,2.271"/>
<path fill="none" stroke="#FFFFFF" stroke-linecap="round" d="M3.166,9.948c-0.638,0.119-0.916,0.638-0.916,2.111
	c0,0.777,0.178,2.025,1.036,2.071"/>
<path fill="none" stroke="#FFFFFF" stroke-linecap="round" d="M1.334,11.143C0.06,11.421,0.298,14.29,1.692,14.25"/>
<path fill="none" stroke="#1D1719" stroke-linecap="round" d="M30.013,4.172c0.797,0.08,1.167,1.079,0.877,1.832"/>
</svg>
